<svg width="1641" height="2063" viewBox="0 0 1641 2063" fill="none" xmlns="http://www.w3.org/2000/svg">
<g clip-path="url(#clip0_2212_9522)">
<rect width="1641" height="1641" transform="translate(0 215)" fill="#993487"/>
<path d="M279.224 349.389C294.384 361.763 308.202 375.128 310.529 394.999C311.479 414.657 307.863 432.872 302.623 451.739C293.63 482.678 293.63 482.678 296.98 513.953C302.208 522.018 308.707 526.869 317.763 529.853C321.832 530.038 325.907 530.117 329.981 530.135C332.386 530.173 334.792 530.212 337.27 530.252C342.335 530.32 347.401 530.357 352.467 530.362C373.07 530.782 373.07 530.782 379.161 536.73C380.319 538.431 381.478 540.131 382.671 541.884C383.55 543.124 384.428 544.365 385.333 545.643C388.974 556.768 386.313 566.675 382.164 577.224C376.089 593.279 370.232 609.339 366.737 626.163C362.593 645.988 356.174 662.481 346.333 680.22C344.143 684.228 342.069 688.277 340.02 692.356C330.481 711.12 319.423 728.509 307.362 745.796C287.102 774.971 279.472 805.296 283.28 840.651C288.19 862.754 300.843 879.017 317.129 894.289C319.851 896.859 322.563 899.438 325.266 902.027C326.455 903.143 327.644 904.259 328.869 905.409C338.969 916.569 336.954 930.922 336.301 944.964C333.971 977.683 316.233 1012.19 303.139 1041.96C295.233 1059.99 288.679 1077.91 284.675 1097.18C284.267 1099.1 283.86 1101.01 283.44 1102.98C282.007 1109.77 280.611 1116.57 279.224 1123.38C278.803 1125.43 278.803 1125.43 278.375 1127.52C267.527 1180.43 267.527 1180.43 259.447 1233.82C258.982 1237.35 258.4 1240.87 257.807 1244.38C256.597 1254.28 256.524 1264.06 256.531 1274.01C256.531 1276.09 256.531 1278.16 256.532 1280.29C256.625 1292.7 257.601 1304.34 259.962 1316.55C261.393 1327 261.465 1337.42 261.729 1347.95C263.488 1405.87 281.575 1464.58 311.678 1514.38C313.83 1518.01 315.97 1521.65 318.099 1525.29C320.178 1528.84 322.282 1532.38 324.387 1535.91C333.524 1552.9 334.688 1570.25 329.68 1588.82C318.943 1619.87 297.15 1639.16 268.067 1653.36C266.038 1654.31 264.009 1655.25 261.919 1656.22C256.723 1658.53 256.723 1658.53 252.855 1662.76C253.158 1667.67 253.641 1672.43 254.249 1677.3C255.836 1694.08 255.836 1694.08 250.826 1700.36C243.023 1706.15 236.147 1710.57 226.105 1711.14C219.864 1707.31 217.603 1701.23 214.315 1694.85C208.378 1695.55 206.377 1696.66 202.216 1701.06C199.546 1704.44 196.883 1707.83 194.23 1711.22C189.975 1714.9 189.975 1714.9 184.769 1715.19C179.833 1712.89 179.833 1712.89 176.22 1707.68C173.476 1700.11 172.933 1693.97 172.734 1685.95C172.456 1674.81 171.392 1666.47 165.634 1656.75C160.693 1653.57 156.486 1651.29 151.182 1648.98C129.162 1638.32 114.052 1623.44 104.783 1600.6C100.906 1587.73 100.007 1575.25 100.092 1561.88C100.102 1560.03 100.112 1558.18 100.122 1556.28C100.695 1523.25 111.893 1499.63 135.209 1476.28C138.335 1473.32 141.462 1470.35 144.59 1467.39C161.569 1450.72 171.825 1429.31 181.861 1408.11C182.999 1405.77 182.999 1405.77 184.159 1403.38C186.683 1395.78 187.326 1388.22 188.073 1380.29C188.231 1378.77 188.39 1377.25 188.553 1375.68C191.045 1350.84 192.286 1326.08 192.502 1301.13C192.552 1297.14 192.602 1293.15 192.653 1289.16C192.774 1279.5 192.879 1269.83 192.97 1260.17C193.023 1254.69 193.085 1249.21 193.159 1243.74C193.226 1238.63 193.279 1233.53 193.315 1228.42C193.517 1214.34 194.745 1200.86 197.168 1186.97C200.039 1169.99 198.402 1155.06 193.374 1138.76C189.345 1123.01 192.517 1107.3 195.133 1091.56C197.497 1075.54 197.356 1059.95 189.975 1045.18C185.819 1039.83 181.363 1035.03 176.632 1030.18C171.718 1025.12 167.187 1019.91 162.718 1014.47C161.424 1012.91 160.13 1011.34 158.796 1009.73C150.471 997.991 149.812 986.925 151.436 972.991C157.929 945.826 170.282 922.105 184.645 898.235C191.147 887.293 193.907 877.472 192.003 864.713C185.538 845.628 173.38 834.161 155.373 825.198C148.943 822.119 142.465 819.153 135.969 816.213C132.003 814.396 128.042 812.572 124.084 810.737C120.509 809.082 116.922 807.449 113.335 805.818C98.7246 798.506 87.1724 790.051 80.8226 774.857C72.9695 748.247 78.4933 723.399 91.1309 699.413C95.8065 691.431 100.466 684.654 108.84 680.239C119.503 678.601 128.851 679.866 139.012 683.247C153.043 687.819 167.338 689.145 180.974 682.996C188.821 675.438 191.766 669.651 192.513 658.795C192.361 649.608 189.685 642.25 186.132 633.846C185.517 632.335 184.901 630.824 184.268 629.267C182.271 624.396 180.231 619.546 178.185 614.696C177.497 613.04 176.809 611.385 176.101 609.68C165.895 585.123 154.827 561.418 141.696 538.239C130.961 518.913 123.108 503.262 128.862 480.868C141.227 442.314 161.814 410.566 189.975 381.472C191.157 380.2 192.339 378.928 193.556 377.618C214.422 355.834 248.825 331.51 279.224 349.389Z" fill="#0A5445"/>
<path d="M1441.66 269.84C1452.32 277.38 1452.32 277.38 1455.1 283.375C1455.55 288.827 1455.37 293.924 1455.1 299.416C1456.48 299.788 1457.86 300.16 1459.28 300.544C1485.31 313.136 1497.97 346.997 1509.92 371.608C1511.83 375.479 1513.79 379.31 1515.78 383.139C1536.38 423.567 1539 467.898 1538.9 512.451C1538.89 518.574 1538.94 524.696 1538.99 530.819C1539.14 574.277 1534.25 612.829 1511.38 650.693C1503.09 664.802 1495.08 678.905 1488.06 693.679C1487.4 695.041 1486.75 696.404 1486.08 697.808C1478.48 714.132 1476.78 731.806 1480.47 749.494C1484.76 760.912 1493 768.491 1501.73 776.739C1516.44 790.684 1521.97 805.658 1522.79 825.643C1521.91 857.817 1508.86 887.024 1496.96 916.457C1483.6 949.537 1469.64 989.495 1483.19 1025.03C1491.89 1040.9 1505.11 1050.26 1520.54 1059.33C1527.15 1064.16 1530.45 1068.17 1534.2 1075.41C1535 1081.14 1535.37 1085.88 1535.22 1091.58C1535.19 1093.08 1535.17 1094.58 1535.14 1096.13C1534.63 1110.22 1531.39 1122.47 1526.09 1135.56C1525.61 1136.78 1525.13 1138 1524.64 1139.25C1514.49 1164.74 1500.43 1187.61 1485.92 1210.85C1477.14 1224.93 1468.36 1239 1460.29 1253.49C1459.08 1255.65 1457.87 1257.82 1456.63 1260.05C1455.4 1262.65 1454.21 1265.27 1453.07 1267.9C1452.38 1269.47 1451.69 1271.04 1450.98 1272.66C1442.5 1295.45 1443.86 1318.67 1444.02 1342.62C1444.02 1347.35 1444.03 1352.08 1444.03 1356.81C1444.03 1366.7 1444.07 1376.59 1444.12 1386.48C1444.19 1399.05 1444.2 1411.63 1444.2 1424.21C1444.2 1433.97 1444.22 1443.74 1444.25 1453.51C1444.27 1458.14 1444.28 1462.77 1444.28 1467.4C1443.26 1538.07 1443.26 1538.07 1473.99 1599.51C1475.99 1601.79 1477.98 1604.08 1479.98 1606.37C1480.93 1607.46 1481.89 1608.56 1482.87 1609.69C1497.85 1627.19 1504.81 1639.94 1504.44 1663.29C1503.78 1668.93 1503.78 1668.93 1500.1 1674.95C1484.84 1684.42 1467.42 1688.26 1449.99 1692.03C1439.14 1694.38 1439.14 1694.38 1430.76 1701.02C1429.83 1706.4 1429.35 1711.03 1429.24 1716.43C1429.14 1718.54 1429.14 1718.54 1429.05 1720.7C1428.91 1724.16 1428.81 1727.63 1428.73 1731.09C1424.17 1732.6 1424.17 1732.6 1418.59 1733.1C1414.33 1729.71 1414.33 1729.71 1410.35 1725.08C1406.56 1720.44 1406.56 1720.44 1402.36 1717.06C1398.05 1716.41 1398.05 1716.41 1394.25 1719.06C1390.59 1724.59 1390.59 1724.59 1387.65 1731.22C1386.07 1734.54 1386.07 1734.54 1384.45 1737.93C1383.67 1739.64 1382.88 1741.36 1382.08 1743.12C1380.07 1743.12 1378.06 1743.12 1375.99 1743.12C1375.62 1742.01 1375.25 1740.89 1374.87 1739.74C1369.72 1724.26 1369.72 1724.26 1363.82 1709.04C1358.97 1706.64 1355.89 1706.78 1350.48 1706.75C1348.62 1706.71 1346.77 1706.67 1344.86 1706.63C1340.97 1706.56 1337.07 1706.53 1333.18 1706.52C1324.03 1706.28 1317.18 1706.07 1309.85 1700.3C1301.12 1690.77 1302.48 1681.11 1302.97 1668.93C1303.57 1661.79 1304.49 1654.72 1305.5 1647.63C1305.73 1645.85 1305.95 1644.06 1306.18 1642.22C1309.96 1615.49 1325.34 1599.29 1345.54 1582.18C1371.98 1559.65 1382.58 1532.52 1386.13 1498.5C1386.67 1484.86 1386.48 1471.21 1386.49 1457.57C1386.65 1404.46 1392.34 1353.01 1399.82 1300.5C1402.48 1281.66 1404.48 1262.8 1406.04 1243.84C1406.15 1242.48 1406.26 1241.12 1406.37 1239.72C1406.89 1233.38 1407.39 1227.04 1407.88 1220.7C1408.42 1214.04 1409.04 1207.39 1409.7 1200.74C1412.9 1168.09 1415.21 1135.84 1408.44 1103.48C1408.15 1101.99 1407.86 1100.5 1407.56 1098.96C1403.13 1079.02 1393.46 1061.84 1378.55 1047.75C1376.72 1045.99 1374.89 1044.23 1373 1042.41C1369.19 1038.79 1365.38 1035.18 1361.56 1031.57C1342.81 1013.49 1327.79 995.166 1326.55 968.51C1327.32 939.092 1348.54 918.092 1368 897.953C1379.79 885.742 1389.81 873.594 1398.3 858.853C1399.45 856.91 1399.45 856.91 1400.62 854.929C1407.54 840.6 1406.98 819.927 1402.75 804.902C1390.15 777.665 1363.43 760.014 1340.05 742.413C1321.65 728.519 1305.46 714.056 1300.94 690.42C1299.07 670.033 1302.22 651.996 1315.27 635.655C1331.51 619.161 1354.52 612.465 1375.87 604.693C1394.89 597.673 1394.89 597.673 1406.92 582.142C1407.88 580.157 1407.88 580.157 1408.86 578.132C1419.31 552.191 1410.66 521.22 1400.28 496.566C1393.09 480.07 1385.34 463.828 1377.52 447.618C1364.78 421.073 1357.01 397.532 1356.97 368.092C1356.92 365.88 1356.87 363.667 1356.82 361.388C1356.71 329.501 1370.7 300.374 1392.23 276.968C1406.01 264.628 1425.13 260.01 1441.66 269.84Z" fill="#0A5445"/>
<path d="M870.779 343.503C875.997 347.859 879.886 351.483 882.949 357.539C883.91 371.03 881.047 383.928 878.512 397.141C878.059 399.532 877.606 401.924 877.139 404.388C872.785 426.803 867.547 449.015 860.383 470.728C858.241 479.321 857.937 487.209 857.974 496.02C857.942 497.577 857.909 499.134 857.875 500.739C857.867 510.642 859.015 517.491 864.693 525.972C869.854 531.15 869.854 531.15 875.723 535.872C889.368 547.741 897.267 559.39 900 577.573C901.117 613.079 888.827 649.276 876.864 682.373C869.196 705.503 862.915 729.042 856.58 752.554C856.15 754.138 855.719 755.722 855.276 757.354C854.128 761.598 853.004 765.847 851.889 770.099C851.27 772.446 850.65 774.793 850.011 777.211C843.145 810.209 841.033 848.406 856.58 878.878C873.733 915.023 871.375 940.751 862.665 979.136C862.048 981.979 861.433 984.822 860.819 987.665C857.301 1003.54 852.851 1019.01 847.959 1034.53C835.536 1074.05 824.055 1114.2 818.672 1155.31C817.944 1160.26 817.011 1165.15 816.068 1170.06C813.759 1182.39 812.236 1194.77 810.815 1207.22C810.56 1209.36 810.305 1211.49 810.042 1213.69C803.646 1268.91 796.849 1333.1 814.531 1386.55C819.635 1402.21 822.005 1418.49 824.76 1434.68C825.529 1439.17 826.298 1443.66 827.068 1448.15C827.739 1452.08 828.398 1456.01 829.057 1459.95C829.705 1463.57 830.418 1467.18 831.35 1470.73C832.366 1474.93 832.564 1478.8 832.667 1483.12C833.765 1517.47 838.273 1543.75 861.397 1570.28C881.006 1593.43 891.545 1612.14 889.034 1642.84C885.127 1659.79 878.747 1675.6 864.662 1686.76C857.464 1690.69 849.578 1692.13 841.589 1693.82C836.366 1694.74 836.366 1694.74 832.239 1696.98C831.635 1703.32 831.396 1709.57 831.269 1715.93C830.858 1726.11 830.858 1726.11 827.477 1731.04C824.126 1733.07 824.126 1733.07 818.041 1732.7C811.956 1731.07 811.956 1731.07 805.87 1727.06C800.799 1725.89 800.799 1725.89 795.729 1727.06C791.951 1731.89 791.951 1731.89 789.643 1737.08C783.231 1734.34 781.545 1733.09 777.473 1727.06C772.753 1725.71 772.753 1725.71 767.331 1727.06C765.323 1728.71 763.315 1730.37 761.246 1732.07C754.571 1737.57 753.206 1737.63 745.019 1737.08C744.896 1734.69 744.773 1732.3 744.647 1729.84C744.475 1726.7 744.304 1723.56 744.132 1720.41C744.052 1718.84 743.972 1717.26 743.89 1715.64C743.805 1714.12 743.72 1712.6 743.632 1711.04C743.558 1709.64 743.484 1708.25 743.407 1706.81C743.08 1702.55 743.08 1702.55 740.962 1696.98C736.501 1694.91 736.501 1694.91 730.82 1692.97C725.634 1690.56 720.56 1687.95 715.481 1685.32C714.143 1684.66 712.806 1684 711.428 1683.32C700.397 1677.61 692.81 1670.74 688.731 1658.76C685.862 1648.29 685.476 1637.96 685.309 1627.18C685.263 1625.56 685.218 1623.95 685.172 1622.28C685.262 1597.48 696.111 1575.91 707.24 1554.24C722.047 1524.55 733.32 1495.72 738.227 1462.89C738.739 1459.62 739.33 1456.35 739.969 1453.1C744.127 1429.65 743.673 1406.03 743.631 1382.29C743.625 1374.83 743.672 1367.36 743.724 1359.9C743.799 1332.62 742.474 1306.64 736.905 1279.91C736.407 1277.4 735.909 1274.89 735.396 1272.31C733.972 1265.35 732.472 1258.4 730.947 1251.46C726.436 1230.49 722.452 1209.5 719.067 1188.32C718.621 1185.54 718.621 1185.54 718.167 1182.71C717.789 1180.28 717.789 1180.28 717.404 1177.81C716.654 1173.27 716.654 1173.27 714.593 1167.62C714.401 1163.7 714.33 1159.77 714.34 1155.84C714.332 1152.75 714.332 1152.75 714.324 1149.59C714.593 1143.56 714.593 1143.56 715.592 1139.02C717.176 1130.58 717.078 1122.18 717.129 1113.61C717.171 1111.84 717.212 1110.07 717.256 1108.25C717.321 1097.53 715.998 1090.9 710.537 1081.4C706.87 1063.16 714.134 1044.84 719.395 1027.56C729.615 993.205 721.749 963.108 711.681 929.578C706.068 910.624 701.857 891.678 701.789 871.86C701.755 869.565 701.721 867.27 701.686 864.905C702.906 843.584 711.715 824.27 720.425 805.064C728.974 785.815 737.167 766.799 742.991 746.538C743.442 745.075 743.894 743.611 744.359 742.103C752.379 715.924 754.866 691.619 753.133 664.327C753.028 662.672 752.923 661.018 752.815 659.313C751.84 647.358 749.299 636.431 745.78 624.976C745.249 623.188 744.719 621.4 744.173 619.558C741.844 611.723 739.466 603.903 737.071 596.087C723.954 553.257 713.942 515.097 722.2 470.203C722.518 468.455 722.835 466.708 723.163 464.907C729.725 432.244 748.876 402.402 776.65 383.481C809.284 361.971 809.284 361.971 822.097 363.555C821.093 360.577 821.093 360.577 820.069 357.539C822.286 357.084 824.504 356.629 826.788 356.161C836.218 353.892 844.481 349.882 853.11 345.555C859.472 343.181 864.03 342.806 870.779 343.503Z" fill="#0A5445"/>
<path d="M577.036 349.389C594.68 352.877 609.77 364.96 619.632 379.466C630.222 398.136 629.918 415.111 624.196 435.359C621.989 442.473 619.669 449.536 617.286 456.594C610.89 474.826 610.89 474.826 611.518 493.759C613.772 497.725 613.772 497.725 616.589 501.529C623.527 511.417 623.263 520.2 621.66 531.857C620.386 535.396 619.025 538.905 617.595 542.384C611.937 558.587 612.464 574.573 612.532 591.511C612.68 628.444 612.68 628.444 603.405 642.141C602.142 644.18 600.879 646.219 599.578 648.321C598.372 650.127 597.167 651.934 595.925 653.796C589.853 662.908 586.892 669.002 587.122 679.972C587.15 681.901 587.177 683.829 587.205 685.816C587.238 687.863 587.271 689.91 587.304 692.019C587.447 707.255 586.832 721.565 584.04 736.586C581.647 751.716 582.611 766.587 585.149 781.624C588.706 803.105 587.655 820.001 580.644 840.551C575.852 854.854 575.76 865.38 582.107 879.375C592.081 904.236 584.839 921.309 575.007 944.918C565.269 968.488 565.558 982.817 573.233 1007C578.041 1025.74 574.526 1041.33 567.274 1058.84C553.666 1093.71 547.976 1128.85 548.146 1166.26C548.143 1169.02 548.14 1171.78 548.134 1174.54C548.124 1181.95 548.14 1189.36 548.16 1196.76C548.178 1204.57 548.174 1212.39 548.174 1220.2C548.176 1233.31 548.193 1246.42 548.221 1259.53C548.253 1274.61 548.264 1289.69 548.262 1304.77C548.261 1320.93 548.275 1337.1 548.293 1353.26C548.298 1357.87 548.299 1362.48 548.3 1367.09C548.302 1374.38 548.315 1381.67 548.335 1388.96C548.343 1392.85 548.342 1396.75 548.341 1400.64C548.395 1415.74 549.07 1430.67 550.205 1445.71C550.789 1453.95 550.973 1462.15 551.023 1470.4C551.07 1473.56 551.119 1476.71 551.17 1479.87C551.241 1484.66 551.301 1489.45 551.328 1494.25C551.533 1524.76 555.038 1549.98 575.007 1574.54C586.941 1589.3 596.243 1602.29 601.376 1620.65C601.957 1622.5 601.957 1622.5 602.549 1624.39C605.793 1640.63 606.016 1662.2 597.32 1676.8C585.398 1691.55 572.342 1698.05 554.43 1703.57C550.685 1704.56 550.685 1704.56 548.638 1706.88C548.363 1714.22 548.304 1719.92 550.667 1726.93C551.566 1739.16 551.566 1739.16 548.417 1745.48C544.582 1748.98 544.582 1748.98 538.433 1749.05C533.742 1748.34 529.052 1747.63 524.361 1746.92C522.332 1746.94 520.303 1746.96 518.213 1746.98C514.243 1750.67 514.243 1750.67 512.128 1755C507.437 1754.5 507.437 1754.5 501.986 1752.99C500.982 1751.63 499.978 1750.26 498.943 1748.86C496.22 1744.52 496.22 1744.52 491.21 1743.97C485.298 1744.69 485.298 1744.69 479.547 1749.11C473.588 1752.99 473.588 1752.99 468.771 1752.49C467.683 1752 466.595 1751.5 465.475 1750.99C465.221 1735.7 465.221 1735.7 467.503 1728.93C468.625 1719.11 468.625 1719.11 464.136 1710.78C458.893 1706.47 453.977 1704.15 447.726 1701.49C434.907 1695.3 426.968 1688.31 418.822 1676.8C417.604 1675.12 416.385 1673.43 415.13 1671.7C403.026 1651.97 403.031 1627.73 408.316 1605.69C416.202 1585.36 430.194 1566.82 443.289 1549.47C466.181 1518.91 475.289 1490.54 477.273 1452.73C477.397 1450.56 477.521 1448.39 477.649 1446.16C478.042 1439.2 478.415 1432.24 478.786 1425.28C479.051 1420.47 479.316 1415.67 479.581 1410.86C482.563 1356.16 484.596 1301.62 483.086 1246.85C483.008 1243.87 482.937 1240.89 482.874 1237.91C482.782 1233.5 482.664 1229.09 482.542 1224.68C482.478 1222.12 482.414 1219.55 482.349 1216.91C481.679 1209.34 479.842 1202.82 477.645 1195.56C477.063 1190.54 477.063 1190.54 476.948 1185.98C476.888 1184.29 476.828 1182.6 476.766 1180.86C476.721 1179.13 476.677 1177.41 476.631 1175.64C476.342 1164.5 475.467 1154.87 472.454 1144.08C470.578 1134.29 471.048 1124.27 471.142 1114.34C471.18 1110.13 471.186 1105.92 471.188 1101.72C471.232 1087.25 471.608 1072.85 472.527 1058.41C474.168 1031.45 475.212 1010.53 462.638 986.204C455.531 970.456 458.267 953.94 462.511 937.736C465.079 924.423 465.885 910.101 460.15 897.672C455.291 892.557 455.291 892.557 449.121 887.772C441.047 880.978 437.575 874.708 436.269 864.258C436.382 848.103 438.718 834.09 443.163 818.594C450.863 781.226 438.655 757.259 418.822 726.357C417.883 724.964 416.945 723.571 415.978 722.135C408.471 709.751 408.566 696.23 410.708 682.244C419.669 655.698 439.065 635.86 458.883 616.7C476.609 599.452 491.78 579.815 492.858 554.415C492.34 542.632 488.193 536.71 480.244 528.066C463.939 510.172 460.176 493.584 461.418 469.698C465.176 436.002 482.865 402.531 509.248 380.841C547.755 350.951 547.755 350.951 567.147 350.517C572.979 351.394 572.979 351.394 577.036 353.399C577.036 352.076 577.036 350.752 577.036 349.389Z" fill="#0A5445"/>
<path d="M992.569 375.096C1023.02 384.47 1039.02 404.373 1053.57 431.303C1063.48 452.722 1066.48 472.362 1066.51 495.576C1066.53 503.332 1066.69 511.086 1066.87 518.84C1066.92 521.099 1066.92 521.099 1066.97 523.404C1067.42 540.649 1069.92 557.207 1073.5 574.068C1073.98 576.666 1074.47 579.263 1074.96 581.94C1079.17 603.439 1085.85 619.272 1099.87 636.228C1108.24 635.09 1108.24 635.09 1116.09 632.217C1127.91 631.01 1134.84 632.26 1144.59 639.024C1166.43 656.804 1172.49 679.657 1176.95 706.408C1177.23 708.006 1177.51 709.604 1177.8 711.251C1188.11 773.081 1187.81 841.133 1179.14 903.097C1176.94 919.062 1176.26 934.801 1176.18 950.911C1176.14 954.317 1176.14 954.317 1176.1 957.793C1176.22 979.043 1179.19 1005.39 1195.2 1021.22C1199.11 1021.51 1199.11 1021.51 1203.31 1019.21C1207.14 1015.11 1210.62 1011.05 1214.09 1006.68C1221.87 997.256 1228.79 988.908 1239.83 983.119C1244.27 983.918 1244.27 983.918 1247.94 985.124C1248.65 998.627 1247.69 1010.12 1243.64 1023.05C1241.8 1029.43 1240.41 1035.79 1239.08 1042.3C1236.05 1056.5 1232.19 1070.34 1228.04 1084.25C1223.54 1099.5 1219.14 1114.74 1215.3 1130.17C1209.8 1152.17 1202.89 1173.57 1195.58 1195.04C1195.05 1196.59 1194.52 1198.14 1193.98 1199.74C1191.34 1207.49 1188.69 1215.23 1186.03 1222.98C1168.56 1274.02 1153.33 1324.54 1146.52 1378.13C1146.15 1380.81 1145.78 1383.49 1145.4 1386.17C1142.61 1407.38 1141.44 1428.72 1140.18 1450.07C1140.09 1451.58 1140 1453.1 1139.91 1454.66C1137.7 1488.65 1137.7 1488.65 1140.43 1522.5C1140.71 1526.96 1140.87 1531.4 1141.02 1535.86C1142.22 1569.42 1146.96 1592.07 1172.13 1615.99C1174.87 1618.6 1177.6 1621.22 1180.32 1623.84C1181.52 1624.98 1182.72 1626.13 1183.96 1627.3C1191.68 1635.9 1192.29 1644.16 1192.01 1655.33C1190.84 1662.8 1188.49 1666.76 1183.1 1672.04C1175.07 1677.6 1165.98 1680.16 1156.66 1682.92C1145.53 1686.39 1137.76 1689.75 1130.29 1698.96C1127.99 1705.4 1126.77 1711.91 1125.6 1718.63C1125.26 1720.4 1124.92 1722.18 1124.57 1724C1123.74 1728.35 1122.94 1732.7 1122.18 1737.06C1119.5 1737.72 1116.82 1738.38 1114.07 1739.06C1112.12 1736.85 1110.17 1734.64 1108.23 1732.42C1107.15 1731.19 1106.07 1729.95 1104.95 1728.68C1101.9 1725.02 1101.9 1725.02 1097.84 1719.01C1093.44 1718.06 1093.44 1718.06 1088.32 1718.12C1086.4 1718.07 1084.49 1718.02 1082.51 1717.96C1080.5 1717.94 1078.49 1717.91 1076.41 1717.88C1036.67 1717.17 1036.67 1717.17 1022.79 1704.97C1011.28 1689.57 998.253 1667.83 999.644 1648.08C1003.19 1625.67 1009.71 1604.82 1017.75 1583.63C1039.11 1527.05 1058.79 1468.83 1073.5 1410.22C1073.83 1408.92 1074.17 1407.62 1074.51 1406.29C1078.54 1390.58 1082.01 1374.87 1084.51 1358.84C1084.77 1357.21 1085.02 1355.59 1085.29 1353.91C1088.17 1335.37 1090.71 1316.79 1093.13 1298.2C1093.65 1294.3 1094.17 1290.4 1094.7 1286.5C1102.04 1232.47 1104.76 1178.47 1104.68 1123.98C1104.68 1121.27 1104.68 1118.56 1104.69 1115.85C1104.64 1059.59 1101.18 1003.73 1096.38 947.676C1095.82 941.122 1095.29 934.566 1094.76 928.009C1089.01 848.141 1089.01 848.141 1070.67 770.433C1069.09 765.451 1067.8 760.401 1066.46 755.35C1054.88 712.904 1035.13 672.18 1015.93 632.661C1004.8 609.708 995.112 586.351 985.757 562.643C978.01 543.048 969.866 524.129 959.243 505.846C956.259 500.594 953.891 495.496 951.795 489.852C950.457 489.852 949.118 489.852 947.739 489.852C947.739 491.175 947.739 492.499 947.739 493.862C945.73 493.862 943.722 493.862 941.653 493.862C927.833 470.393 928.98 446.983 935.747 421.406C940.454 405.466 947.594 388.902 959.528 376.937C970.753 371.062 980.461 372.126 992.569 375.096Z" fill="#0A5445"/>
<path d="M579.682 878.811L520.648 702.837H501.158V685.607H590.698V702.837H558.215L607.929 857.344H594.37L645.496 702.837H613.295V685.607H686.736V702.837H667.246L608.493 878.811H579.682ZM473.476 878.811L414.724 702.837H394.952V685.607H479.973V702.837H452.857L502.57 857.344H489.577L532.794 727.129L542.962 755.657L501.723 878.811H473.476ZM753.778 881.353C738.714 881.353 725.532 878.434 714.234 872.597C702.935 866.571 694.085 858.003 687.682 846.893C681.28 835.783 678.078 822.319 678.078 806.501C678.078 790.683 681.28 777.219 687.682 766.109C694.085 754.81 702.935 746.242 714.234 740.404C725.532 734.379 738.714 731.366 753.778 731.366C768.843 731.366 782.025 734.379 793.323 740.404C804.622 746.242 813.472 754.81 819.875 766.109C826.277 777.219 829.478 790.683 829.478 806.501C829.478 822.319 826.277 835.877 819.875 847.175C813.472 858.285 804.622 866.759 793.323 872.597C782.025 878.434 768.843 881.353 753.778 881.353ZM753.778 864.97C761.311 864.97 767.713 862.711 772.986 858.191C778.447 853.484 782.59 846.704 785.414 837.854C788.427 828.815 789.934 817.893 789.934 805.088C789.934 793.037 788.427 782.774 785.414 774.3C782.59 765.826 778.447 759.329 772.986 754.81C767.713 750.102 761.311 747.748 753.778 747.748C746.246 747.748 739.749 750.102 734.289 754.81C729.016 759.329 724.873 766.014 721.86 774.865C719.036 783.527 717.623 794.072 717.623 806.501C717.623 818.929 719.036 829.568 721.86 838.419C724.873 847.081 729.016 853.672 734.289 858.191C739.749 862.711 746.246 864.97 753.778 864.97ZM844.561 878.246V861.016H869.418V751.985H847.104V734.755H901.336V784.186L904.726 783.621V861.016H945.965V878.246H844.561ZM895.122 790.965C895.31 776.465 897.57 764.885 901.901 756.222C906.421 747.372 912.352 740.969 919.696 737.015C927.04 732.872 935.326 730.801 944.553 730.801C954.345 730.801 962.254 733.343 968.28 738.427C974.306 743.512 977.319 750.385 977.319 759.047C977.319 765.449 975.436 770.722 971.669 774.865C968.092 779.008 963.007 781.079 956.416 781.079C950.767 781.079 946.154 779.573 942.576 776.56C939.186 773.358 937.492 769.404 937.492 764.696C937.492 758.859 939.469 754.528 943.423 751.703C947.378 748.69 953.498 747.466 961.783 748.031L960.371 758.764C959.994 754.245 958.111 750.761 954.722 748.313C951.332 745.865 946.624 744.641 940.599 744.641C934.196 744.641 928.264 746.336 922.803 749.726C917.343 752.927 912.917 758.011 909.528 764.979C906.326 771.758 904.726 780.42 904.726 790.965H895.122ZM983.021 878.246V861.016H1007.03V702.837H984.716V685.607H1042.62V861.016H1064.65V878.246H983.021ZM1142.44 881.071C1130.2 881.071 1119.46 878.246 1110.24 872.597C1101.01 866.759 1093.76 858.285 1088.49 847.175C1083.21 836.065 1080.58 822.507 1080.58 806.501C1080.58 790.306 1083.21 776.748 1088.49 765.826C1093.76 754.716 1101.01 746.336 1110.24 740.687C1119.46 734.849 1130.2 731.931 1142.44 731.931C1155.62 731.931 1166.26 735.038 1174.36 741.252C1182.45 747.278 1188.29 755.94 1191.87 767.238C1195.63 778.349 1197.52 791.342 1197.52 806.218L1199.5 806.783C1199.68 821.283 1197.71 834.182 1193.56 845.48C1189.61 856.591 1183.39 865.347 1174.92 871.749C1166.45 877.964 1155.62 881.071 1142.44 881.071ZM1155.15 861.016C1162.68 861.016 1169.18 858.944 1174.64 854.802C1180.1 850.471 1184.34 844.256 1187.35 836.159C1190.55 828.062 1192.15 818.176 1192.15 806.501C1192.15 794.826 1190.55 784.939 1187.35 776.842C1184.34 768.557 1180.1 762.342 1174.64 758.2C1169.18 754.057 1162.68 751.985 1155.15 751.985C1147.62 751.985 1141.12 754.057 1135.66 758.2C1130.2 762.342 1125.96 768.557 1122.95 776.842C1120.12 784.939 1118.71 794.826 1118.71 806.501C1118.71 818.176 1120.12 828.062 1122.95 836.159C1125.96 844.256 1130.2 850.471 1135.66 854.802C1141.12 858.944 1147.62 861.016 1155.15 861.016ZM1192.72 878.246V838.419L1195.82 805.371L1189.89 775.147V702.837H1167.58V685.607H1225.76V861.016H1247.51V878.246H1192.72ZM209.944 1147.38L138.199 970.837H118.144V953.607H210.792V970.837H178.309L239.321 1125.91H226.61L289.316 970.837H256.551V953.607H331.403V970.837H311.631L239.603 1147.38H209.944ZM391.905 1149.07C378.159 1149.07 365.919 1146.15 355.185 1140.31C344.452 1134.29 335.978 1125.72 329.764 1114.61C323.738 1103.5 320.725 1090.13 320.725 1074.5C320.725 1058.68 323.738 1045.22 329.764 1034.11C335.978 1023 344.452 1014.52 355.185 1008.69C365.919 1002.85 378.159 999.931 391.905 999.931L392.753 1016.31C385.597 1016.31 379.289 1018.2 373.828 1021.96C368.367 1025.73 364.13 1031.66 361.117 1039.76C358.104 1047.67 356.598 1058.21 356.598 1071.39C356.598 1087.78 360.552 1100.68 368.461 1110.09C376.37 1119.51 387.386 1124.21 401.509 1124.21C410.36 1124.21 417.61 1122.43 423.259 1118.85C429.096 1115.27 433.522 1110.66 436.534 1105.01C439.736 1099.36 441.713 1093.61 442.466 1087.78H458.567C458.378 1095.5 456.872 1103.03 454.047 1110.37C451.223 1117.72 447.08 1124.31 441.619 1130.15C436.158 1135.98 429.285 1140.6 420.999 1143.99C412.713 1147.38 403.016 1149.07 391.905 1149.07ZM339.085 1071.96V1055.58H423.824L458.849 1066.59V1071.96H339.085ZM423.824 1055.58C423.635 1047.86 422.317 1041.08 419.869 1035.24C417.61 1029.21 414.22 1024.6 409.701 1021.4C405.181 1018.01 399.532 1016.31 392.753 1016.31L391.905 999.931C406.593 999.931 418.834 1002.76 428.626 1008.4C438.606 1014.05 446.138 1021.87 451.223 1031.85C456.307 1041.83 458.849 1053.41 458.849 1066.59L423.824 1055.58ZM532.208 1199.35C517.708 1199.35 506.221 1196.9 497.747 1192.01C489.273 1187.3 485.036 1179.95 485.036 1169.97C485.036 1163.76 486.731 1158.67 490.121 1154.72C493.699 1150.95 498.312 1148.13 503.961 1146.25C509.611 1144.17 515.542 1143.04 521.757 1142.86L523.451 1144.83C521.568 1145.96 519.591 1147.38 517.52 1149.07C515.636 1150.77 514.036 1152.74 512.718 1155C511.588 1157.26 511.023 1159.99 511.023 1163.19C511.023 1169.78 513.377 1174.77 518.084 1178.16C522.792 1181.55 529.665 1183.25 538.704 1183.25H570.623C577.213 1183.25 582.58 1182.31 586.723 1180.42C591.054 1178.73 594.161 1176.28 596.044 1173.08C597.927 1169.88 598.869 1166.4 598.869 1162.63C598.869 1157.36 597.08 1153.4 593.502 1150.77C590.112 1148.13 585.216 1146.81 578.814 1146.81H516.672C504.244 1146.81 494.075 1143.8 486.166 1137.77C478.446 1131.56 474.585 1123.46 474.585 1113.48C474.585 1106.14 476.374 1100.02 479.952 1095.12C483.53 1090.22 488.426 1086.46 494.64 1083.82C501.043 1081.19 508.198 1079.87 516.107 1079.87L517.802 1086.93C512.529 1087.12 508.292 1088.44 505.091 1090.88C501.89 1093.33 500.289 1097.1 500.289 1102.18C500.289 1106.89 501.796 1110.66 504.809 1113.48C508.01 1116.12 512.624 1117.43 518.649 1117.43H587.288C601.223 1117.43 611.862 1120.54 619.206 1126.76C626.55 1132.97 630.222 1141.44 630.222 1152.18C630.222 1161.4 628.057 1169.5 623.725 1176.47C619.394 1183.63 612.804 1189.18 603.953 1193.13C595.103 1197.28 583.898 1199.35 570.34 1199.35H532.208ZM550.85 1095.97C538.045 1095.97 526.841 1094.08 517.237 1090.32C507.822 1086.55 500.478 1081.19 495.205 1074.22C489.932 1067.06 487.296 1058.49 487.296 1048.51C487.296 1033.83 493.039 1022.34 504.526 1014.05C516.201 1005.58 531.831 1001.34 551.415 1001.34L587.288 1019.14C593.69 1021.02 599.434 1024.69 604.518 1030.15C609.602 1035.43 612.144 1042.77 612.144 1052.19C612.144 1065.56 606.684 1076.2 595.762 1084.1C584.84 1092.01 569.869 1095.97 550.85 1095.97ZM550.85 1081C559.324 1081 566.009 1078.08 570.905 1072.24C575.801 1066.4 578.249 1058.49 578.249 1048.51C578.249 1038.91 575.801 1031.19 570.905 1025.35C566.009 1019.33 559.324 1016.31 550.85 1016.31C542.565 1016.31 535.974 1019.33 531.078 1025.35C526.182 1031.19 523.734 1038.91 523.734 1048.51C523.734 1058.49 526.182 1066.4 531.078 1072.24C535.974 1078.08 542.565 1081 550.85 1081ZM587.288 1019.14L551.415 1001.34H630.505V1019.14H587.288ZM713.262 1149.07C699.515 1149.07 687.275 1146.15 676.541 1140.31C665.808 1134.29 657.334 1125.72 651.12 1114.61C645.094 1103.5 642.081 1090.13 642.081 1074.5C642.081 1058.68 645.094 1045.22 651.12 1034.11C657.334 1023 665.808 1014.52 676.541 1008.69C687.275 1002.85 699.515 999.931 713.262 999.931L714.109 1016.31C706.953 1016.31 700.645 1018.2 695.184 1021.96C689.723 1025.73 685.486 1031.66 682.473 1039.76C679.46 1047.67 677.954 1058.21 677.954 1071.39C677.954 1087.78 681.908 1100.68 689.817 1110.09C697.726 1119.51 708.742 1124.21 722.865 1124.21C731.716 1124.21 738.966 1122.43 744.615 1118.85C750.452 1115.27 754.878 1110.66 757.891 1105.01C761.092 1099.36 763.069 1093.61 763.822 1087.78H779.923C779.734 1095.5 778.228 1103.03 775.403 1110.37C772.579 1117.72 768.436 1124.31 762.975 1130.15C757.514 1135.98 750.641 1140.6 742.355 1143.99C734.07 1147.38 724.372 1149.07 713.262 1149.07ZM660.441 1071.96V1055.58H745.18L780.205 1066.59V1071.96H660.441ZM745.18 1055.58C744.992 1047.86 743.673 1041.08 741.225 1035.24C738.966 1029.21 735.576 1024.6 731.057 1021.4C726.537 1018.01 720.888 1016.31 714.109 1016.31L713.262 999.931C727.95 999.931 740.19 1002.76 749.982 1008.4C759.962 1014.05 767.494 1021.87 772.579 1031.85C777.663 1041.83 780.205 1053.41 780.205 1066.59L745.18 1055.58ZM862.918 1149.07C847.853 1149.07 836.649 1144.46 829.305 1135.23C822.149 1125.81 819.042 1112.92 819.984 1096.53L822.808 1020.83H787.501V1004.17H798.517C807.555 1004.17 814.711 1003.04 819.984 1000.78C825.256 998.518 828.928 994.94 831 990.044C833.071 985.148 834.107 978.746 834.107 970.837V962.363H854.727V1102.46C854.727 1108.87 856.045 1113.95 858.681 1117.72C861.506 1121.48 865.743 1123.37 871.392 1123.37C877.041 1123.37 881.09 1121.58 883.538 1118C886.174 1114.23 887.492 1109.06 887.492 1102.46V1056.42H906.7V1103.59C906.7 1117.72 903.028 1128.83 895.684 1136.92C888.34 1145.02 877.418 1149.07 862.918 1149.07ZM854.727 1020.83V1002.76H913.479V1020.83H854.727ZM964.199 1057.27C958.738 1057.27 953.936 1055.58 949.793 1052.19C945.65 1048.8 943.579 1043.81 943.579 1037.22C943.579 1028.55 946.403 1021.49 952.053 1016.03C957.702 1010.57 965.046 1006.43 974.085 1003.6C983.312 1000.78 993.01 999.366 1003.18 999.366C1020.5 999.366 1033.78 1003.04 1043.01 1010.38C1052.23 1017.73 1056.85 1028.93 1056.85 1043.99L1023.8 1039.76C1023.8 1031.1 1021.35 1024.79 1016.45 1020.83C1011.56 1016.69 1004.5 1014.62 995.269 1014.62C989.432 1014.62 983.971 1015.47 978.887 1017.16C973.991 1018.67 969.848 1021.02 966.458 1024.22C963.069 1027.42 960.809 1031.47 959.679 1036.37V1026.2C966.647 1026.2 972.202 1027.42 976.344 1029.87C980.675 1032.13 982.841 1035.99 982.841 1041.45C982.841 1046.35 981.24 1050.21 978.039 1053.03C974.838 1055.86 970.224 1057.27 964.199 1057.27ZM1061.65 1149.07C1049.97 1149.07 1041.31 1145.87 1035.66 1139.47C1030.2 1132.88 1027.47 1123.65 1027.47 1111.79V1099.36H1023.52V1061.79H1022.39L1023.8 1051.06V1039.76L1056.85 1043.99V1112.92C1056.85 1116.68 1057.79 1119.79 1059.67 1122.24C1061.55 1124.5 1064.19 1125.63 1067.58 1125.63C1071.35 1125.63 1074.08 1124.5 1075.77 1122.24C1077.65 1119.79 1078.6 1116.68 1078.6 1112.92V1054.73H1096.96V1111.22C1096.96 1122.9 1094.13 1132.12 1088.48 1138.9C1082.83 1145.68 1073.89 1149.07 1061.65 1149.07ZM977.192 1149.07C963.257 1149.07 952.147 1145.59 943.861 1138.62C935.764 1131.65 931.715 1122.61 931.715 1111.5C931.715 1103.22 933.504 1096.34 937.082 1090.88C940.848 1085.42 945.933 1080.9 952.335 1077.33C958.926 1073.75 966.458 1070.92 974.932 1068.85L998.376 1062.92C1003.84 1061.6 1008.45 1060.1 1012.22 1058.4C1015.98 1056.52 1018.81 1054.16 1020.69 1051.34C1022.76 1048.33 1023.8 1044.56 1023.8 1040.04L1024.93 1061.79H1023.52C1022.2 1065.18 1019.84 1068 1016.45 1070.26C1013.25 1072.34 1008.64 1074.31 1002.61 1076.2L992.162 1079.02C987.078 1080.71 982.747 1082.69 979.169 1084.95C975.591 1087.02 972.861 1089.66 970.978 1092.86C969.095 1095.87 968.153 1099.55 968.153 1103.88C968.153 1110.47 970.224 1115.65 974.367 1119.41C978.698 1123.18 984.253 1125.06 991.032 1125.06C996.87 1125.06 1002.24 1123.74 1007.13 1121.11C1012.03 1118.47 1015.98 1114.33 1019 1108.68C1022.01 1103.03 1023.52 1095.5 1023.52 1086.08L1030.01 1088.06C1030.01 1102.18 1027.85 1113.76 1023.52 1122.8C1019.37 1131.84 1013.35 1138.53 1005.44 1142.86C997.529 1147 988.114 1149.07 977.192 1149.07ZM1207.58 1149.07C1194.39 1149.07 1183.57 1145.96 1175.09 1139.75C1166.81 1133.35 1160.59 1124.59 1156.45 1113.48C1152.5 1102.18 1150.52 1089.28 1150.52 1074.78L1152.5 1074.22C1152.5 1059.34 1154.38 1046.35 1158.14 1035.24C1161.91 1023.94 1167.84 1015.28 1175.94 1009.25C1184.04 1003.04 1194.68 999.931 1207.86 999.931C1220.1 999.931 1230.83 1002.85 1240.06 1008.69C1249.47 1014.34 1256.72 1022.72 1261.81 1033.83C1267.08 1044.75 1269.72 1058.31 1269.72 1074.5C1269.72 1090.51 1267.08 1104.07 1261.81 1115.18C1256.54 1126.29 1249.29 1134.76 1240.06 1140.6C1230.83 1146.25 1220 1149.07 1207.58 1149.07ZM1194.86 1129.02C1202.4 1129.02 1208.8 1126.94 1214.07 1122.8C1219.53 1118.47 1223.77 1112.26 1226.78 1104.16C1229.8 1096.06 1231.3 1086.18 1231.3 1074.5C1231.3 1062.83 1229.8 1052.94 1226.78 1044.84C1223.77 1036.56 1219.53 1030.34 1214.07 1026.2C1208.8 1022.06 1202.4 1019.99 1194.86 1019.99C1187.33 1019.99 1180.84 1022.06 1175.37 1026.2C1169.91 1030.34 1165.68 1036.56 1162.66 1044.84C1159.65 1052.94 1158.14 1062.83 1158.14 1074.5C1158.14 1086.18 1159.65 1096.06 1162.66 1104.16C1165.68 1112.26 1169.91 1118.47 1175.37 1122.8C1180.84 1126.94 1187.33 1129.02 1194.86 1129.02ZM1124.53 1146.25V970.554H1102.78V953.607H1160.12V1043.15L1153.91 1073.37L1157.58 1107.27V1146.25H1124.53ZM1284.1 1146.25V1129.02H1308.11V970.837H1285.8V953.607H1343.7V1129.02H1365.73V1146.25H1284.1ZM1450.86 1149.07C1437.12 1149.07 1424.88 1146.15 1414.14 1140.31C1403.41 1134.29 1394.94 1125.72 1388.72 1114.61C1382.7 1103.5 1379.68 1090.13 1379.68 1074.5C1379.68 1058.68 1382.7 1045.22 1388.72 1034.11C1394.94 1023 1403.41 1014.52 1414.14 1008.69C1424.88 1002.85 1437.12 999.931 1450.86 999.931L1451.71 1016.31C1444.56 1016.31 1438.25 1018.2 1432.79 1021.96C1427.33 1025.73 1423.09 1031.66 1420.08 1039.76C1417.06 1047.67 1415.56 1058.21 1415.56 1071.39C1415.56 1087.78 1419.51 1100.68 1427.42 1110.09C1435.33 1119.51 1446.34 1124.21 1460.47 1124.21C1469.32 1124.21 1476.57 1122.43 1482.22 1118.85C1488.05 1115.27 1492.48 1110.66 1495.49 1105.01C1498.69 1099.36 1500.67 1093.61 1501.42 1087.78H1517.52C1517.34 1095.5 1515.83 1103.03 1513.01 1110.37C1510.18 1117.72 1506.04 1124.31 1500.58 1130.15C1495.12 1135.98 1488.24 1140.6 1479.96 1143.99C1471.67 1147.38 1461.97 1149.07 1450.86 1149.07ZM1398.04 1071.96V1055.58H1482.78L1517.81 1066.59V1071.96H1398.04ZM1482.78 1055.58C1482.59 1047.86 1481.28 1041.08 1478.83 1035.24C1476.57 1029.21 1473.18 1024.6 1468.66 1021.4C1464.14 1018.01 1458.49 1016.31 1451.71 1016.31L1450.86 999.931C1465.55 999.931 1477.79 1002.76 1487.58 1008.4C1497.56 1014.05 1505.1 1021.87 1510.18 1031.85C1515.27 1041.83 1517.81 1053.41 1517.81 1066.59L1482.78 1055.58ZM636.681 1417.07C624.441 1417.07 613.708 1414.25 604.48 1408.6C595.253 1402.76 588.003 1394.29 582.731 1383.18C577.458 1372.07 574.822 1358.51 574.822 1342.5C574.822 1326.31 577.458 1312.75 582.731 1301.83C588.003 1290.72 595.253 1282.34 604.48 1276.69C613.708 1270.85 624.441 1267.93 636.681 1267.93C649.863 1267.93 660.502 1271.04 668.599 1277.25C676.697 1283.28 682.534 1291.94 686.112 1303.24C689.878 1314.35 691.761 1327.34 691.761 1342.22L693.739 1342.78C693.927 1357.28 691.95 1370.18 687.807 1381.48C683.852 1392.59 677.638 1401.35 669.164 1407.75C660.69 1413.96 649.863 1417.07 636.681 1417.07ZM649.392 1397.02C656.924 1397.02 663.421 1394.94 668.882 1390.8C674.343 1386.47 678.58 1380.26 681.593 1372.16C684.794 1364.06 686.395 1354.18 686.395 1342.5C686.395 1330.83 684.794 1320.94 681.593 1312.84C678.58 1304.56 674.343 1298.34 668.882 1294.2C663.421 1290.06 656.924 1287.99 649.392 1287.99C641.86 1287.99 635.363 1290.06 629.902 1294.2C624.441 1298.34 620.204 1304.56 617.191 1312.84C614.367 1320.94 612.954 1330.83 612.954 1342.5C612.954 1354.18 614.367 1364.06 617.191 1372.16C620.204 1380.26 624.441 1386.47 629.902 1390.8C635.363 1394.94 641.86 1397.02 649.392 1397.02ZM686.959 1414.25V1374.42L690.067 1341.37L684.135 1311.15V1238.84H661.82V1221.61H720.008V1397.02H741.757V1414.25H686.959ZM789.315 1325.27C783.854 1325.27 779.052 1323.58 774.909 1320.19C770.766 1316.8 768.695 1311.81 768.695 1305.22C768.695 1296.55 771.519 1289.49 777.169 1284.03C782.818 1278.57 790.162 1274.43 799.201 1271.6C808.428 1268.78 818.126 1267.37 828.294 1267.37C845.619 1267.37 858.895 1271.04 868.122 1278.38C877.349 1285.73 881.962 1296.93 881.962 1311.99L848.914 1307.76C848.914 1299.1 846.466 1292.79 841.57 1288.83C836.674 1284.69 829.613 1282.62 820.385 1282.62C814.548 1282.62 809.087 1283.47 804.003 1285.16C799.107 1286.67 794.964 1289.02 791.574 1292.22C788.185 1295.42 785.925 1299.47 784.795 1304.37V1294.2C791.763 1294.2 797.318 1295.42 801.46 1297.87C805.792 1300.13 807.957 1303.99 807.957 1309.45C807.957 1314.35 806.357 1318.21 803.155 1321.03C799.954 1323.86 795.34 1325.27 789.315 1325.27ZM886.764 1417.07C875.089 1417.07 866.427 1413.87 860.778 1407.47C855.317 1400.88 852.586 1391.65 852.586 1379.79V1367.36H848.632V1329.79H847.502L848.914 1319.06V1307.76L881.962 1311.99V1380.92C881.962 1384.68 882.904 1387.79 884.787 1390.24C886.67 1392.5 889.306 1393.63 892.696 1393.63C896.462 1393.63 899.192 1392.5 900.887 1390.24C902.77 1387.79 903.712 1384.68 903.712 1380.92V1322.73H922.072V1379.22C922.072 1390.9 919.247 1400.12 913.598 1406.9C907.949 1413.68 899.004 1417.07 886.764 1417.07ZM802.308 1417.07C788.373 1417.07 777.263 1413.59 768.977 1406.62C760.88 1399.65 756.831 1390.61 756.831 1379.5C756.831 1371.22 758.62 1364.34 762.198 1358.88C765.964 1353.42 771.049 1348.9 777.451 1345.33C784.042 1341.75 791.574 1338.92 800.048 1336.85L823.493 1330.92C828.954 1329.6 833.567 1328.1 837.333 1326.4C841.099 1324.52 843.924 1322.16 845.807 1319.34C847.878 1316.33 848.914 1312.56 848.914 1308.04L850.044 1329.79H848.632C847.314 1333.18 844.96 1336 841.57 1338.26C838.369 1340.34 833.755 1342.31 827.729 1344.2L817.278 1347.02C812.194 1348.71 807.863 1350.69 804.285 1352.95C800.707 1355.02 797.977 1357.66 796.094 1360.86C794.211 1363.87 793.269 1367.55 793.269 1371.88C793.269 1378.47 795.34 1383.65 799.483 1387.41C803.814 1391.18 809.369 1393.06 816.149 1393.06C821.986 1393.06 827.353 1391.74 832.249 1389.11C837.145 1386.47 841.099 1382.33 844.112 1376.68C847.125 1371.03 848.632 1363.5 848.632 1354.08L855.128 1356.06C855.128 1370.18 852.963 1381.76 848.632 1390.8C844.489 1399.84 838.463 1406.53 830.554 1410.86C822.645 1415 813.23 1417.07 802.308 1417.07ZM951.62 1457.75C956.704 1457.75 961.036 1456.71 964.613 1454.64C968.191 1452.57 971.393 1449.37 974.217 1445.03C977.23 1440.89 980.055 1435.71 982.691 1429.5L998.226 1395.04L1001.62 1389.39L1041.44 1287.99H1015.74V1270.76H1076.47V1287.99H1061.5L1006.42 1423.28C1002.09 1434.21 997.379 1443.25 992.295 1450.4C987.399 1457.75 981.655 1463.21 975.065 1466.78C968.662 1470.55 960.847 1472.43 951.62 1472.43V1457.75ZM993.142 1433.45L933.825 1287.99H918.855V1270.76H997.662V1287.99H971.675L1009.52 1388.82L993.142 1433.45ZM935.802 1430.91C940.322 1430.91 943.994 1432.04 946.818 1434.3C949.831 1436.75 951.338 1440.04 951.338 1444.19C951.338 1448.52 949.737 1451.72 946.536 1453.79C943.523 1455.86 939.568 1456.99 934.672 1457.18L934.39 1448.42C935.52 1451.63 937.591 1453.98 940.604 1455.49C943.805 1456.99 947.477 1457.75 951.62 1457.75V1472.43C941.452 1472.43 933.072 1470.08 926.481 1465.37C920.079 1460.66 916.877 1454.54 916.877 1447.01C917.066 1442.12 918.855 1438.16 922.244 1435.15C925.822 1432.32 930.341 1430.91 935.802 1430.91Z" fill="#E1FFB7"/>
<path d="M590.165 489.605H597.809L580.679 524H573.923L572.695 499.842L561.844 524H555.156L551.13 489.605H558.637L560.07 514.446L570.989 489.605H578.018L579.11 514.719L590.165 489.605ZM617.438 495.338C615.163 495.338 613.115 496.043 611.296 497.453C609.521 498.818 608.225 500.615 607.406 502.845H624.535C624.535 500.615 623.943 498.818 622.761 497.453C621.623 496.043 619.849 495.338 617.438 495.338ZM631.496 505.711L630.882 508.782H606.109C605.973 509.555 605.904 510.306 605.904 511.034C605.904 513.172 606.519 514.924 607.747 516.288C608.975 517.608 610.818 518.268 613.275 518.268C617.142 518.268 620.554 516.175 623.511 511.989L628.971 514.855C626.65 518.313 624.171 520.793 621.532 522.294C618.939 523.795 615.686 524.546 611.773 524.546C607.633 524.546 604.403 523.181 602.083 520.451C599.763 517.722 598.602 514.196 598.602 509.874C598.602 504.414 600.468 499.592 604.198 495.406C607.974 491.175 612.797 489.059 618.666 489.059C622.852 489.059 626.082 490.288 628.357 492.745C630.677 495.156 631.837 498.318 631.837 502.23C631.837 503.277 631.723 504.437 631.496 505.711ZM638.699 490.834L646.615 475.684H656.374L643.953 490.834H638.699ZM661.284 524H654.118L660.806 489.605H667.972L666.88 495.133C669.883 491.084 673.659 489.059 678.208 489.059C679.755 489.059 681.166 489.332 682.439 489.878L679.914 496.361C678.777 495.679 677.503 495.338 676.093 495.338C673.682 495.338 671.293 496.566 668.927 499.023C666.561 501.48 664.946 504.96 664.082 509.464L661.284 524ZM700.809 495.338C698.534 495.338 696.487 496.043 694.667 497.453C692.893 498.818 691.596 500.615 690.777 502.845H707.906C707.906 500.615 707.315 498.818 706.132 497.453C704.995 496.043 703.22 495.338 700.809 495.338ZM714.867 505.711L714.253 508.782H689.481C689.344 509.555 689.276 510.306 689.276 511.034C689.276 513.172 689.89 514.924 691.119 516.288C692.347 517.608 694.19 518.268 696.646 518.268C700.513 518.268 703.926 516.175 706.883 511.989L712.342 514.855C710.022 518.313 707.542 520.793 704.904 522.294C702.31 523.795 699.058 524.546 695.145 524.546C691.005 524.546 687.775 523.181 685.454 520.451C683.134 517.722 681.974 514.196 681.974 509.874C681.974 504.414 683.839 499.592 687.57 495.406C691.346 491.175 696.169 489.059 702.038 489.059C706.223 489.059 709.453 490.288 711.728 492.745C714.048 495.156 715.208 498.318 715.208 502.23C715.208 503.277 715.095 504.437 714.867 505.711ZM759.779 511.989L765.648 514.651C763.373 518.245 760.939 520.793 758.346 522.294C755.798 523.795 752.682 524.546 748.996 524.546C744.947 524.546 741.74 523.227 739.374 520.588C737.008 517.904 735.825 514.332 735.825 509.874C735.825 506.234 736.599 502.867 738.146 499.774C739.693 496.634 742.013 494.064 745.107 492.062C748.246 490.06 751.84 489.059 755.889 489.059C759.438 489.059 762.281 489.901 764.419 491.584C766.603 493.268 768.036 495.611 768.719 498.613L762.031 501.275C760.803 497.317 758.346 495.338 754.661 495.338C751.339 495.338 748.632 496.748 746.54 499.569C744.447 502.39 743.4 505.688 743.4 509.464C743.4 512.285 743.992 514.469 745.175 516.016C746.358 517.517 748.041 518.268 750.225 518.268C753.91 518.268 757.095 516.175 759.779 511.989ZM792.445 495.338C790.17 495.338 788.122 496.043 786.303 497.453C784.528 498.818 783.232 500.615 782.413 502.845H799.542C799.542 500.615 798.95 498.818 797.768 497.453C796.63 496.043 794.856 495.338 792.445 495.338ZM806.503 505.711L805.889 508.782H781.116C780.98 509.555 780.911 510.306 780.911 511.034C780.911 513.172 781.526 514.924 782.754 516.288C783.982 517.608 785.825 518.268 788.282 518.268C792.149 518.268 795.561 516.175 798.518 511.989L803.978 514.855C801.657 518.313 799.178 520.793 796.539 522.294C793.946 523.795 790.693 524.546 786.78 524.546C782.64 524.546 779.41 523.181 777.09 520.451C774.77 517.722 773.609 514.196 773.609 509.874C773.609 504.414 775.475 499.592 779.205 495.406C782.981 491.175 787.804 489.059 793.673 489.059C797.859 489.059 801.089 490.288 803.364 492.745C805.684 495.156 806.844 498.318 806.844 502.23C806.844 503.277 806.73 504.437 806.503 505.711ZM820.894 475.684H828.059L818.71 524H811.544L820.894 475.684ZM848.825 495.338C846.551 495.338 844.503 496.043 842.683 497.453C840.909 498.818 839.612 500.615 838.794 502.845H855.923C855.923 500.615 855.331 498.818 854.148 497.453C853.011 496.043 851.237 495.338 848.825 495.338ZM862.883 505.711L862.269 508.782H837.497C837.36 509.555 837.292 510.306 837.292 511.034C837.292 513.172 837.906 514.924 839.135 516.288C840.363 517.608 842.206 518.268 844.662 518.268C848.53 518.268 851.942 516.175 854.899 511.989L860.358 514.855C858.038 518.313 855.559 520.793 852.92 522.294C850.327 523.795 847.074 524.546 843.161 524.546C839.021 524.546 835.791 523.181 833.471 520.451C831.15 517.722 829.99 514.196 829.99 509.874C829.99 504.414 831.855 499.592 835.586 495.406C839.362 491.175 844.185 489.059 850.054 489.059C854.239 489.059 857.47 490.288 859.744 492.745C862.065 495.156 863.225 498.318 863.225 502.23C863.225 503.277 863.111 504.437 862.883 505.711ZM902.932 503.663C902.932 509.578 901.294 514.537 898.019 518.541C894.743 522.544 890.148 524.546 884.234 524.546C882.323 524.546 880.503 524.091 878.774 523.181C877.091 522.271 875.953 521.225 875.362 520.042L874.543 524H867.377L876.795 475.684H883.961L880.548 493.427C883.142 490.515 886.417 489.059 890.375 489.059C894.106 489.059 897.132 490.333 899.452 492.881C901.772 495.429 902.932 499.023 902.932 503.663ZM883.892 518.268C887.305 518.268 890.034 516.834 892.082 513.968C894.174 511.057 895.221 507.781 895.221 504.141C895.221 501.229 894.607 499.046 893.378 497.59C892.195 496.088 890.512 495.338 888.328 495.338C885.052 495.338 882.368 496.771 880.275 499.637C878.183 502.458 877.136 505.847 877.136 509.805C877.136 512.308 877.796 514.355 879.115 515.947C880.435 517.494 882.027 518.268 883.892 518.268ZM914.064 524H906.899L913.587 489.605H920.752L919.66 495.133C922.663 491.084 926.439 489.059 930.989 489.059C932.536 489.059 933.946 489.332 935.22 489.878L932.695 496.361C931.558 495.679 930.284 495.338 928.873 495.338C926.462 495.338 924.073 496.566 921.708 499.023C919.342 501.48 917.727 504.96 916.862 509.464L914.064 524ZM955.737 489.059C957.602 489.059 959.285 489.469 960.787 490.288C962.288 491.061 963.38 492.108 964.062 493.427L964.745 489.605H971.91L965.291 524H958.125L958.876 520.042C956.374 523.045 953.052 524.546 948.912 524.546C945 524.546 941.929 523.204 939.699 520.52C937.516 517.835 936.424 514.537 936.424 510.624C936.424 504.3 938.13 499.137 941.542 495.133C945 491.084 949.731 489.059 955.737 489.059ZM944.135 508.918C944.135 511.875 944.749 514.173 945.978 515.811C947.252 517.449 948.958 518.268 951.096 518.268C954.554 518.268 957.261 516.857 959.217 514.036C961.219 511.17 962.22 507.804 962.22 503.936C962.22 498.204 959.831 495.338 955.054 495.338C951.733 495.338 949.072 496.725 947.07 499.501C945.113 502.23 944.135 505.37 944.135 508.918ZM977.476 495.884L978.637 489.605H984.437L986.212 480.119L994.196 475.684L991.466 489.605H1000.06L998.905 495.884H990.306L987.03 512.672C986.894 513.4 986.826 514.105 986.826 514.787C986.826 517.107 988.054 518.268 990.511 518.268C991.603 518.268 992.763 517.949 993.991 517.312L994.606 523.318C992.786 524.136 990.625 524.546 988.122 524.546C985.438 524.546 983.345 523.795 981.844 522.294C980.388 520.747 979.66 518.586 979.66 515.811C979.66 514.537 979.774 513.354 980.001 512.262L983.277 495.884H977.476ZM1008.89 489.605H1016.05L1009.37 524H1002.2L1008.89 489.605ZM1010.87 483.395C1009.96 482.44 1009.5 481.28 1009.5 479.915C1009.5 478.55 1009.98 477.39 1010.93 476.434C1011.89 475.433 1013.05 474.933 1014.42 474.933C1015.78 474.933 1016.94 475.433 1017.9 476.434C1018.85 477.39 1019.33 478.55 1019.33 479.915C1019.33 481.28 1018.85 482.44 1017.9 483.395C1016.99 484.305 1015.83 484.76 1014.42 484.76C1013 484.76 1011.82 484.305 1010.87 483.395ZM1026.08 489.605H1033.25L1032.22 495.065C1035.32 491.061 1039.23 489.059 1043.96 489.059C1046.6 489.059 1048.67 489.765 1050.17 491.175C1051.67 492.54 1052.42 494.382 1052.42 496.703C1052.42 497.749 1052.29 498.909 1052.01 500.183L1047.37 524H1040.21L1044.51 501.616C1044.69 500.752 1044.78 500.024 1044.78 499.432C1044.78 496.703 1043.46 495.338 1040.82 495.338C1038.5 495.338 1036.23 496.566 1034 499.023C1031.77 501.48 1030.29 504.596 1029.56 508.372L1026.56 524H1019.39L1026.08 489.605ZM1062.48 502.708C1062.48 498.795 1063.77 495.543 1066.37 492.949C1068.96 490.356 1072.37 489.059 1076.6 489.059C1079.33 489.059 1081.56 489.56 1083.29 490.561L1089.98 487.149L1092.3 492.13L1086.91 494.792C1087.36 495.929 1087.59 497.249 1087.59 498.75C1087.59 502.981 1086.27 506.279 1083.63 508.645C1080.99 510.966 1077.53 512.126 1073.26 512.126C1071.3 512.126 1069.37 511.739 1067.46 510.966C1065.82 511.83 1065 512.945 1065 514.309C1065 515.947 1066.02 516.766 1068.07 516.766H1075.65C1078.69 516.766 1081.08 517.494 1082.81 518.95C1084.54 520.406 1085.4 522.612 1085.4 525.57C1085.4 529.892 1083.81 533.122 1080.63 535.26C1077.44 537.398 1073.33 538.468 1068.28 538.468C1064.18 538.468 1060.93 537.58 1058.52 535.806C1056.15 534.077 1054.97 531.712 1054.97 528.709C1054.97 525.206 1056.42 522.339 1059.34 520.11C1058.43 518.791 1057.97 517.312 1057.97 515.674C1057.97 512.626 1059.95 509.987 1063.91 507.758C1062.95 506.257 1062.48 504.573 1062.48 502.708ZM1072.98 522.772H1067.46C1066.23 522.772 1065.09 522.703 1064.04 522.567C1062.68 523.613 1062 525.16 1062 527.207C1062 530.529 1064.32 532.189 1068.96 532.189C1074.92 532.189 1077.9 530.347 1077.9 526.661C1077.9 524.068 1076.26 522.772 1072.98 522.772ZM1076.12 495.065C1074.21 495.065 1072.62 495.656 1071.35 496.839C1070.12 498.022 1069.5 499.546 1069.5 501.411C1069.5 502.913 1069.89 504.096 1070.66 504.96C1071.48 505.779 1072.58 506.188 1073.94 506.188C1075.81 506.188 1077.37 505.574 1078.65 504.346C1079.92 503.118 1080.56 501.571 1080.56 499.705C1080.56 498.204 1080.15 497.067 1079.33 496.293C1078.56 495.474 1077.49 495.065 1076.12 495.065Z" fill="white"/>
<path fill-rule="evenodd" clip-rule="evenodd" d="M785.681 1617.68C787.254 1615.08 790.075 1613.49 793.118 1613.49H848.527C851.572 1613.49 854.395 1615.08 855.968 1617.69L910.751 1708.56C912.415 1711.32 912.415 1714.78 910.75 1717.54L883.27 1763.09C881.697 1765.7 878.875 1767.29 875.83 1767.29H765.468C762.413 1767.29 759.582 1765.69 758.013 1763.06L730.764 1717.53C729.114 1714.77 729.121 1711.33 730.783 1708.58L785.681 1617.68ZM843.58 1687.03C843.929 1687.1 844.209 1686.83 844.139 1686.35C844.085 1685.98 843.905 1685.69 843.696 1685.35C843.636 1685.26 843.573 1685.16 843.51 1685.05C843.127 1684.33 842.551 1683.36 841.975 1682.38L841.974 1682.38C841.398 1681.4 840.822 1680.43 840.438 1679.71C839.042 1677.04 837.646 1674.37 836.319 1671.7C835.982 1671 835.589 1670.28 835.189 1669.56L835.189 1669.56C834.345 1668.03 833.471 1666.46 833.045 1664.78L833.116 1664.76C835.825 1663.67 839.062 1662.36 840.446 1659.65C842.61 1655.61 843.588 1651.43 842.541 1646.98C840.306 1637.4 830.454 1636.17 822.006 1636.17H813.419C812.006 1636.17 810.563 1636.22 809.09 1636.28L809.09 1636.28C808.307 1636.32 807.516 1636.35 806.716 1636.37C805.808 1636.37 805.11 1636.58 804.342 1637.47V1640.96C804.551 1643.77 804.761 1646.64 804.831 1649.45C804.97 1653.97 805.04 1658.49 805.04 1663.07C805.04 1667.73 805.04 1672.25 804.97 1676.9L804.691 1685.19C804.691 1685.8 804.831 1686.35 805.04 1687.1C808.81 1687.24 812.581 1687.31 816.351 1687.31C817.259 1686.56 817.329 1686.08 817.398 1685.32L817.678 1679.02L817.887 1671.49C817.922 1670.98 817.922 1670.5 817.922 1670.02C817.922 1669.54 817.922 1669.06 817.957 1668.55C817.957 1667.9 818.009 1667.25 818.068 1666.51L818.069 1666.51L818.082 1666.34L818.097 1666.15H821.518C823.04 1669.77 824.811 1673.7 826.56 1677.57L826.56 1677.57L826.56 1677.57C828.019 1680.81 829.463 1684.01 830.733 1686.97C830.803 1687.31 831.013 1687.45 831.222 1687.45C831.77 1687.45 833.166 1687.38 834.864 1687.31L834.864 1687.31L834.865 1687.31C837.494 1687.19 840.846 1687.03 842.882 1687.03H843.58ZM817.468 1655.75V1646.64C818.027 1646.44 818.446 1646.3 818.934 1646.3C821.239 1646.3 823.131 1646.37 825.435 1646.5C827.948 1646.71 829.414 1648.08 829.833 1650.61C830.113 1652.26 828.646 1654.45 826.761 1655.2C826.203 1655.54 825.644 1655.68 825.155 1655.68C822.572 1655.75 820.331 1655.75 817.468 1655.75ZM837.567 1729.89L837.567 1729.89L837.567 1729.89L837.567 1729.89L837.567 1729.89C837.124 1729.41 836.686 1728.93 836.246 1728.47C835.135 1728.59 834.873 1729.13 834.546 1729.81L834.501 1729.91C834.488 1729.93 834.474 1729.96 834.46 1729.99C834.033 1730.86 833.625 1731.75 833.215 1732.63L833.215 1732.63C832.456 1734.27 831.693 1735.93 830.797 1737.54C830.148 1738.78 830.303 1739.94 831.256 1741.08C831.515 1741.35 831.716 1741.6 831.918 1741.85C832.119 1742.1 832.32 1742.35 832.58 1742.62C836.968 1746.95 844.385 1749.14 850.732 1749.61C857.079 1750.07 864.721 1749.2 870.054 1746.07C873.975 1743.71 875.749 1740.18 876.284 1736.13C876.851 1731.66 875.551 1727.62 872.464 1724.02C869.584 1720.87 865.959 1719.17 861.976 1718.02C860.142 1717.54 858.233 1717.29 856.319 1717.04C855.048 1716.87 853.774 1716.7 852.518 1716.47C851.264 1716.16 850.09 1715.86 848.936 1715.27C847.01 1714.34 845.96 1711.26 846.714 1709.66C848.134 1706.61 851.296 1705.91 854.707 1706.16C859.071 1706.48 865.813 1709.97 867.88 1713.35C869.09 1713.15 869.825 1712.92 870.285 1712.09L874.825 1704.54C875.264 1704 875.147 1703.42 874.633 1702.8C873.616 1701.44 872.341 1700.34 870.727 1699.51C870.245 1699.27 869.769 1699.04 869.292 1698.81C867.862 1698.11 866.433 1697.42 864.869 1696.71C862.636 1695.62 859.033 1695 856.415 1694.81C849.021 1694.49 840.851 1696.04 835.991 1701.42C833.561 1704.11 831.66 1707.2 831.95 1710.88C832.255 1714.34 832.798 1717.82 835.471 1720.53C837.472 1722.61 839.674 1724.13 842.726 1724.93C843.784 1725.19 844.817 1725.51 845.85 1725.84C846.883 1726.17 847.916 1726.49 848.974 1726.75C850.625 1727.09 852.37 1727.21 854.036 1727.33H854.036C856.496 1727.51 858.253 1728.58 859.82 1730.05C862.074 1731.94 862.343 1735.9 858.621 1737.71C856.396 1738.69 854.154 1738.82 851.694 1738.64C845.823 1738.21 843.208 1735.79 839.65 1732.09C838.931 1731.39 838.244 1730.64 837.568 1729.89L837.568 1729.89L837.567 1729.89ZM772.866 1696.88C772.94 1696.8 773.041 1696.76 773.146 1696.76H787.273C787.744 1696.76 787.925 1697.71 787.518 1697.94C787.289 1698.07 787.008 1698.21 786.71 1698.36L786.709 1698.36L786.709 1698.36L786.708 1698.36L786.708 1698.36C786.072 1698.68 785.36 1699.03 784.916 1699.42C782.606 1701.38 780.821 1704.27 779.561 1708.08C778.354 1711.89 777.75 1716.53 777.75 1722C777.75 1727.41 778.354 1732.02 779.561 1735.83C780.821 1739.64 782.606 1742.56 784.916 1744.59C785.299 1744.93 785.922 1745.24 786.489 1745.52L786.49 1745.52L786.49 1745.52L786.491 1745.52C786.798 1745.67 787.089 1745.81 787.316 1745.95C787.73 1746.2 787.506 1747.39 787.021 1747.39H773.279C773.176 1747.39 773.076 1747.35 773.002 1747.28C770.806 1745.17 768.976 1742.65 767.512 1739.71C765.097 1734.79 763.889 1728.89 763.889 1722C763.889 1715.12 765.097 1709.25 767.512 1704.4C768.945 1701.48 770.73 1698.97 772.866 1696.88ZM796.642 1696.76C796.17 1696.76 795.986 1697.72 796.394 1697.96C797.1 1698.37 797.768 1698.85 798.397 1699.42C800.706 1701.38 802.465 1704.27 803.672 1708.08C804.879 1711.89 805.483 1716.53 805.483 1722C805.483 1727.41 804.879 1732.02 803.672 1735.83C802.465 1739.64 800.706 1742.56 798.397 1744.59C797.833 1745.1 797.237 1745.54 796.611 1745.92C796.197 1746.17 796.426 1747.39 796.911 1747.39H809.98C810.085 1747.39 810.185 1747.35 810.259 1747.28C812.435 1745.17 814.254 1742.65 815.717 1739.71C818.184 1734.79 819.417 1728.89 819.417 1722C819.417 1715.12 818.184 1709.25 815.717 1704.4C814.285 1701.48 812.51 1698.97 810.394 1696.88C810.32 1696.8 810.218 1696.76 810.113 1696.76H796.642Z" fill="#E1FFB7"/>
<rect width="1641" height="215" fill="white"/>
<circle cx="127" cy="108" r="66" fill="#D9D9D9"/>
<path d="M233.755 96V61.8182H245.939C248.587 61.8182 250.785 62.2744 252.532 63.1868C254.29 64.0992 255.603 65.3621 256.471 66.9755C257.339 68.5778 257.773 70.4304 257.773 72.5334C257.773 74.6252 257.333 76.4667 256.454 78.0579C255.586 79.6379 254.273 80.8674 252.515 81.7464C250.768 82.6255 248.571 83.065 245.923 83.065H236.693V78.6254H245.455C247.124 78.6254 248.482 78.3861 249.528 77.9077C250.585 77.4292 251.358 76.7338 251.848 75.8214C252.337 74.909 252.582 73.813 252.582 72.5334C252.582 71.2427 252.332 70.1244 251.831 69.1786C251.341 68.2328 250.568 67.5096 249.511 67.0089C248.465 66.497 247.091 66.2411 245.388 66.2411H238.913V96H233.755ZM250.629 80.5781L259.075 96H253.2L244.921 80.5781H250.629ZM275.315 96.5174C272.79 96.5174 270.614 95.9777 268.79 94.8984C266.976 93.808 265.574 92.2781 264.584 90.3086C263.604 88.328 263.115 86.008 263.115 83.3487C263.115 80.7228 263.604 78.4084 264.584 76.4055C265.574 74.4027 266.954 72.8394 268.723 71.7156C270.503 70.5917 272.584 70.0298 274.965 70.0298C276.411 70.0298 277.813 70.2691 279.171 70.7475C280.528 71.226 281.747 71.977 282.826 73.0007C283.905 74.0244 284.757 75.354 285.38 76.9897C286.003 78.6142 286.314 80.5893 286.314 82.9148V84.6839H265.935V80.9453H281.424C281.424 79.6323 281.157 78.4696 280.623 77.457C280.089 76.4334 279.338 75.6267 278.37 75.0369C277.413 74.4472 276.289 74.1523 274.998 74.1523C273.596 74.1523 272.372 74.4973 271.326 75.1871C270.292 75.8659 269.491 76.756 268.923 77.8576C268.367 78.948 268.089 80.133 268.089 81.4126V84.3335C268.089 86.047 268.389 87.5046 268.99 88.7063C269.602 89.908 270.453 90.826 271.543 91.4602C272.634 92.0833 273.908 92.3949 275.366 92.3949C276.311 92.3949 277.174 92.2614 277.953 91.9943C278.731 91.7161 279.405 91.3045 279.972 90.7592C280.54 90.214 280.973 89.5408 281.274 88.7397L285.997 89.5909C285.619 90.9818 284.94 92.2002 283.961 93.2461C282.993 94.2809 281.775 95.0876 280.306 95.6662C278.848 96.2337 277.185 96.5174 275.315 96.5174ZM292.791 105.614V70.3636H297.665V74.5195H298.082C298.372 73.9854 298.789 73.3679 299.334 72.6669C299.879 71.9659 300.636 71.3539 301.604 70.831C302.572 70.2969 303.852 70.0298 305.443 70.0298C307.512 70.0298 309.359 70.5528 310.984 71.5987C312.608 72.6446 313.882 74.1523 314.806 76.1218C315.741 78.0913 316.208 80.4613 316.208 83.2319C316.208 86.0025 315.746 88.3781 314.823 90.3587C313.899 92.3281 312.631 93.8469 311.017 94.9151C309.404 95.9722 307.562 96.5007 305.493 96.5007C303.935 96.5007 302.661 96.2392 301.671 95.7163C300.691 95.1933 299.924 94.5813 299.367 93.8803C298.811 93.1793 298.383 92.5562 298.082 92.011H297.782V105.614H292.791ZM297.682 83.1818C297.682 84.9844 297.943 86.5644 298.466 87.9219C298.989 89.2794 299.746 90.342 300.736 91.1097C301.726 91.8664 302.939 92.2447 304.374 92.2447C305.866 92.2447 307.112 91.8497 308.113 91.0597C309.115 90.2585 309.871 89.1737 310.383 87.805C310.906 86.4364 311.167 84.8954 311.167 83.1818C311.167 81.4905 310.912 79.9717 310.4 78.6254C309.899 77.279 309.142 76.2164 308.13 75.4375C307.128 74.6586 305.877 74.2692 304.374 74.2692C302.928 74.2692 301.704 74.6419 300.703 75.3874C299.712 76.1329 298.961 77.1733 298.449 78.5085C297.938 79.8437 297.682 81.4015 297.682 83.1818ZM338.979 85.3683V70.3636H343.986V96H339.079V91.5604H338.812C338.222 92.929 337.276 94.0695 335.975 94.9819C334.684 95.8832 333.076 96.3338 331.151 96.3338C329.504 96.3338 328.047 95.9722 326.778 95.2489C325.521 94.5146 324.531 93.4297 323.807 91.9943C323.095 90.5589 322.739 88.7842 322.739 86.6701V70.3636H327.73V86.0692C327.73 87.8162 328.214 89.207 329.182 90.2418C330.15 91.2766 331.407 91.794 332.954 91.794C333.888 91.794 334.817 91.5604 335.741 91.093C336.676 90.6257 337.449 89.9192 338.061 88.9734C338.684 88.0276 338.99 86.8259 338.979 85.3683ZM352.032 96V61.8182H357.022V74.5195H357.323C357.612 73.9854 358.029 73.3679 358.575 72.6669C359.12 71.9659 359.876 71.3539 360.844 70.831C361.812 70.2969 363.092 70.0298 364.683 70.0298C366.753 70.0298 368.6 70.5528 370.224 71.5987C371.849 72.6446 373.123 74.1523 374.046 76.1218C374.981 78.0913 375.448 80.4613 375.448 83.2319C375.448 86.0025 374.987 88.3781 374.063 90.3587C373.14 92.3281 371.871 93.8469 370.258 94.9151C368.644 95.9722 366.803 96.5007 364.733 96.5007C363.176 96.5007 361.901 96.2392 360.911 95.7163C359.932 95.1933 359.164 94.5813 358.608 93.8803C358.052 93.1793 357.623 92.5562 357.323 92.011H356.906V96H352.032ZM356.922 83.1818C356.922 84.9844 357.184 86.5644 357.707 87.9219C358.23 89.2794 358.986 90.342 359.977 91.1097C360.967 91.8664 362.18 92.2447 363.615 92.2447C365.106 92.2447 366.352 91.8497 367.354 91.0597C368.355 90.2585 369.112 89.1737 369.624 87.805C370.147 86.4364 370.408 84.8954 370.408 83.1818C370.408 81.4905 370.152 79.9717 369.64 78.6254C369.14 77.279 368.383 76.2164 367.37 75.4375C366.369 74.6586 365.117 74.2692 363.615 74.2692C362.169 74.2692 360.945 74.6419 359.943 75.3874C358.953 76.1329 358.202 77.1733 357.69 78.5085C357.178 79.8437 356.922 81.4015 356.922 83.1818ZM386.983 61.8182V96H381.992V61.8182H386.983ZM394.636 96V70.3636H399.627V96H394.636ZM397.157 66.408C396.289 66.408 395.543 66.1187 394.92 65.5401C394.308 64.9504 394.002 64.2494 394.002 63.4371C394.002 62.6138 394.308 61.9128 394.92 61.3342C395.543 60.7444 396.289 60.4496 397.157 60.4496C398.024 60.4496 398.764 60.7444 399.376 61.3342C400 61.9128 400.311 62.6138 400.311 63.4371C400.311 64.2494 400 64.9504 399.376 65.5401C398.764 66.1187 398.024 66.408 397.157 66.408ZM418.079 96.5174C415.598 96.5174 413.461 95.9555 411.67 94.8317C409.89 93.6967 408.521 92.1334 407.564 90.1417C406.607 88.15 406.129 85.869 406.129 83.2986C406.129 80.695 406.618 78.3973 407.598 76.4055C408.577 74.4027 409.956 72.8394 411.737 71.7156C413.517 70.5917 415.615 70.0298 418.029 70.0298C419.976 70.0298 421.712 70.3915 423.236 71.1147C424.761 71.8268 425.99 72.8282 426.925 74.119C427.871 75.4097 428.433 76.9174 428.611 78.642H423.754C423.487 77.4403 422.875 76.4055 421.918 75.5376C420.972 74.6697 419.704 74.2358 418.112 74.2358C416.722 74.2358 415.503 74.603 414.457 75.3374C413.423 76.0606 412.616 77.0954 412.037 78.4418C411.459 79.777 411.169 81.357 411.169 83.1818C411.169 85.0511 411.453 86.6645 412.021 88.022C412.588 89.3795 413.389 90.431 414.424 91.1765C415.47 91.922 416.699 92.2947 418.112 92.2947C419.058 92.2947 419.915 92.1223 420.683 91.7773C421.462 91.4213 422.113 90.915 422.636 90.2585C423.17 89.602 423.542 88.812 423.754 87.8885H428.611C428.433 89.5464 427.893 91.0263 426.992 92.3281C426.09 93.63 424.883 94.6536 423.37 95.3991C421.868 96.1446 420.104 96.5174 418.079 96.5174ZM459.065 96.5174C456.661 96.5174 454.564 95.9666 452.772 94.8651C450.981 93.7635 449.59 92.2224 448.6 90.2418C447.609 88.2612 447.114 85.9469 447.114 83.2986C447.114 80.6393 447.609 78.3138 448.6 76.3221C449.59 74.3304 450.981 72.7837 452.772 71.6822C454.564 70.5806 456.661 70.0298 459.065 70.0298C461.468 70.0298 463.565 70.5806 465.357 71.6822C467.148 72.7837 468.539 74.3304 469.529 76.3221C470.52 78.3138 471.015 80.6393 471.015 83.2986C471.015 85.9469 470.52 88.2612 469.529 90.2418C468.539 92.2224 467.148 93.7635 465.357 94.8651C463.565 95.9666 461.468 96.5174 459.065 96.5174ZM459.081 92.3281C460.639 92.3281 461.93 91.9164 462.953 91.093C463.977 90.2696 464.734 89.1737 465.223 87.805C465.724 86.4364 465.974 84.9287 465.974 83.282C465.974 81.6463 465.724 80.1442 465.223 78.7756C464.734 77.3958 463.977 76.2887 462.953 75.4542C461.93 74.6197 460.639 74.2024 459.081 74.2024C457.512 74.2024 456.211 74.6197 455.176 75.4542C454.152 76.2887 453.39 77.3958 452.889 78.7756C452.4 80.1442 452.155 81.6463 452.155 83.282C452.155 84.9287 452.4 86.4364 452.889 87.805C453.39 89.1737 454.152 90.2696 455.176 91.093C456.211 91.9164 457.512 92.3281 459.081 92.3281ZM489.726 70.3636V74.3693H475.239V70.3636H489.726ZM479.211 96V67.3928C479.211 65.7905 479.561 64.4608 480.262 63.4038C480.963 62.3356 481.893 61.54 483.05 61.017C484.207 60.483 485.464 60.2159 486.822 60.2159C487.823 60.2159 488.68 60.2994 489.392 60.4663C490.104 60.622 490.633 60.7667 490.978 60.9002L489.809 64.9393C489.576 64.8725 489.275 64.7946 488.908 64.7056C488.541 64.6055 488.096 64.5554 487.573 64.5554C486.36 64.5554 485.492 64.8558 484.969 65.4567C484.457 66.0575 484.201 66.9254 484.201 68.0604V96H479.211ZM528.237 70.7976C528.059 69.2176 527.325 67.9936 526.034 67.1257C524.743 66.2467 523.119 65.8072 521.16 65.8072C519.758 65.8072 518.546 66.0297 517.522 66.4748C516.498 66.9087 515.703 67.5096 515.135 68.2773C514.579 69.034 514.301 69.8963 514.301 70.8643C514.301 71.6766 514.49 72.3776 514.868 72.9673C515.258 73.5571 515.764 74.0522 516.387 74.4528C517.021 74.8422 517.7 75.1705 518.423 75.4375C519.146 75.6934 519.842 75.9048 520.509 76.0717L523.847 76.9396C524.938 77.2067 526.056 77.5683 527.202 78.0245C528.348 78.4807 529.411 79.0816 530.39 79.8271C531.369 80.5726 532.159 81.4961 532.76 82.5977C533.372 83.6992 533.678 85.0178 533.678 86.5533C533.678 88.4893 533.177 90.2085 532.176 91.7106C531.186 93.2127 529.745 94.3977 527.853 95.2656C525.973 96.1335 523.697 96.5675 521.027 96.5675C518.468 96.5675 516.253 96.1613 514.384 95.3491C512.515 94.5368 511.052 93.3852 509.994 91.8942C508.937 90.392 508.353 88.6117 508.242 86.5533H513.416C513.516 87.7884 513.917 88.8176 514.618 89.641C515.33 90.4532 516.237 91.0597 517.338 91.4602C518.451 91.8497 519.669 92.0444 520.993 92.0444C522.451 92.0444 523.747 91.8163 524.882 91.3601C526.028 90.8928 526.93 90.2474 527.586 89.424C528.243 88.5895 528.571 87.6159 528.571 86.5032C528.571 85.4906 528.282 84.6617 527.703 84.0163C527.135 83.371 526.362 82.8369 525.383 82.4141C524.415 81.9912 523.319 81.6185 522.095 81.2958L518.056 80.1942C515.319 79.4487 513.149 78.3527 511.547 76.9062C509.956 75.4598 509.16 73.5459 509.16 71.1648C509.16 69.1953 509.694 67.4762 510.762 66.0075C511.83 64.5387 513.277 63.3982 515.102 62.5859C516.927 61.7625 518.985 61.3509 521.277 61.3509C523.592 61.3509 525.633 61.757 527.403 62.5692C529.183 63.3815 530.585 64.4998 531.608 65.924C532.632 67.3371 533.166 68.9616 533.211 70.7976H528.237ZM547.841 96.5675C546.216 96.5675 544.748 96.267 543.435 95.6662C542.122 95.0542 541.081 94.1696 540.314 93.0124C539.557 91.8552 539.179 90.4366 539.179 88.7564C539.179 87.3099 539.457 86.1193 540.013 85.1847C540.57 84.25 541.321 83.5101 542.266 82.9648C543.212 82.4196 544.269 82.0079 545.438 81.7298C546.606 81.4516 547.796 81.2402 549.009 81.0955C550.545 80.9175 551.791 80.7728 552.748 80.6616C553.705 80.5392 554.4 80.3445 554.834 80.0774C555.268 79.8104 555.485 79.3764 555.485 78.7756V78.6587C555.485 77.2011 555.073 76.0717 554.25 75.2706C553.438 74.4695 552.225 74.0689 550.612 74.0689C548.931 74.0689 547.607 74.4416 546.639 75.1871C545.682 75.9215 545.02 76.7393 544.653 77.6406L539.963 76.5724C540.52 75.0147 541.332 73.7573 542.4 72.8004C543.479 71.8324 544.72 71.1314 546.122 70.6974C547.524 70.2524 548.998 70.0298 550.545 70.0298C551.569 70.0298 552.653 70.1522 553.799 70.397C554.957 70.6307 556.036 71.0646 557.037 71.6989C558.05 72.3331 558.879 73.2399 559.524 74.4194C560.17 75.5877 560.492 77.1065 560.492 78.9759V96H555.619V92.495H555.418C555.096 93.1404 554.612 93.7746 553.966 94.3977C553.321 95.0208 552.492 95.5382 551.48 95.9499C550.467 96.3616 549.254 96.5675 547.841 96.5675ZM548.926 92.5618C550.306 92.5618 551.485 92.2892 552.464 91.744C553.455 91.1987 554.206 90.4866 554.717 89.6076C555.24 88.7174 555.502 87.7661 555.502 86.7536V83.4489C555.324 83.6269 554.979 83.7938 554.467 83.9496C553.966 84.0942 553.393 84.2222 552.748 84.3335C552.103 84.4336 551.474 84.5282 550.862 84.6172C550.25 84.6951 549.738 84.7618 549.326 84.8175C548.358 84.9399 547.474 85.1457 546.673 85.435C545.883 85.7243 545.248 86.1416 544.77 86.6868C544.303 87.2209 544.069 87.933 544.069 88.8232C544.069 90.0582 544.525 90.9929 545.438 91.6271C546.35 92.2502 547.513 92.5618 548.926 92.5618ZM568.48 96V61.8182H573.47V74.5195H573.771C574.06 73.9854 574.477 73.3679 575.022 72.6669C575.568 71.9659 576.324 71.3539 577.292 70.831C578.26 70.2969 579.54 70.0298 581.131 70.0298C583.201 70.0298 585.048 70.5528 586.672 71.5987C588.297 72.6446 589.571 74.1523 590.494 76.1218C591.429 78.0913 591.896 80.4613 591.896 83.2319C591.896 86.0025 591.435 88.3781 590.511 90.3587C589.588 92.3281 588.319 93.8469 586.706 94.9151C585.092 95.9722 583.251 96.5007 581.181 96.5007C579.623 96.5007 578.349 96.2392 577.359 95.7163C576.38 95.1933 575.612 94.5813 575.056 93.8803C574.499 93.1793 574.071 92.5562 573.771 92.011H573.353V96H568.48ZM573.37 83.1818C573.37 84.9844 573.632 86.5644 574.154 87.9219C574.677 89.2794 575.434 90.342 576.424 91.1097C577.415 91.8664 578.628 92.2447 580.063 92.2447C581.554 92.2447 582.8 91.8497 583.802 91.0597C584.803 90.2585 585.56 89.1737 586.071 87.805C586.594 86.4364 586.856 84.8954 586.856 83.1818C586.856 81.4905 586.6 79.9717 586.088 78.6254C585.587 77.279 584.831 76.2164 583.818 75.4375C582.817 74.6586 581.565 74.2692 580.063 74.2692C578.616 74.2692 577.392 74.6419 576.391 75.3874C575.401 76.1329 574.65 77.1733 574.138 78.5085C573.626 79.8437 573.37 81.4015 573.37 83.1818ZM598.44 70.3636H603.431V97.669C603.431 99.3826 603.119 100.829 602.496 102.009C601.884 103.188 600.971 104.084 599.759 104.696C598.557 105.308 597.072 105.614 595.302 105.614C595.124 105.614 594.957 105.614 594.802 105.614C594.635 105.614 594.462 105.608 594.284 105.597V101.308C594.44 101.308 594.579 101.308 594.701 101.308C594.813 101.308 594.941 101.308 595.085 101.308C596.265 101.308 597.116 100.99 597.639 100.356C598.173 99.7331 598.44 98.8262 598.44 97.6357V70.3636ZM600.91 66.408C600.042 66.408 599.297 66.1187 598.674 65.5401C598.062 64.9504 597.756 64.2494 597.756 63.4371C597.756 62.6138 598.062 61.9128 598.674 61.3342C599.297 60.7444 600.042 60.4496 600.91 60.4496C601.778 60.4496 602.518 60.7444 603.13 61.3342C603.753 61.9128 604.065 62.6138 604.065 63.4371C604.065 64.2494 603.753 64.9504 603.13 65.5401C602.518 66.1187 601.778 66.408 600.91 66.408ZM611.084 96V70.3636H616.075V96H611.084ZM613.604 66.408C612.737 66.408 611.991 66.1187 611.368 65.5401C610.756 64.9504 610.45 64.2494 610.45 63.4371C610.45 62.6138 610.756 61.9128 611.368 61.3342C611.991 60.7444 612.737 60.4496 613.604 60.4496C614.472 60.4496 615.212 60.7444 615.824 61.3342C616.447 61.9128 616.759 62.6138 616.759 63.4371C616.759 64.2494 616.447 64.9504 615.824 65.5401C615.212 66.1187 614.472 66.408 613.604 66.408ZM629.286 96L621.742 70.3636H626.899L631.923 89.1903H632.174L637.214 70.3636H642.371L647.379 89.1069H647.629L652.619 70.3636H657.777L650.249 96H645.159L639.951 77.4904H639.567L634.36 96H629.286ZM670.913 96.5675C669.289 96.5675 667.82 96.267 666.507 95.6662C665.194 95.0542 664.154 94.1696 663.386 93.0124C662.629 91.8552 662.251 90.4366 662.251 88.7564C662.251 87.3099 662.529 86.1193 663.085 85.1847C663.642 84.25 664.393 83.5101 665.339 82.9648C666.284 82.4196 667.341 82.0079 668.51 81.7298C669.678 81.4516 670.869 81.2402 672.081 81.0955C673.617 80.9175 674.863 80.7728 675.82 80.6616C676.777 80.5392 677.472 80.3445 677.906 80.0774C678.34 79.8104 678.557 79.3764 678.557 78.7756V78.6587C678.557 77.2011 678.146 76.0717 677.322 75.2706C676.51 74.4695 675.297 74.0689 673.684 74.0689C672.004 74.0689 670.679 74.4416 669.711 75.1871C668.754 75.9215 668.092 76.7393 667.725 77.6406L663.035 76.5724C663.592 75.0147 664.404 73.7573 665.472 72.8004C666.551 71.8324 667.792 71.1314 669.194 70.6974C670.596 70.2524 672.07 70.0298 673.617 70.0298C674.641 70.0298 675.725 70.1522 676.872 70.397C678.029 70.6307 679.108 71.0646 680.109 71.6989C681.122 72.3331 681.951 73.2399 682.596 74.4194C683.242 75.5877 683.564 77.1065 683.564 78.9759V96H678.691V92.495H678.491C678.168 93.1404 677.684 93.7746 677.038 94.3977C676.393 95.0208 675.564 95.5382 674.552 95.9499C673.539 96.3616 672.326 96.5675 670.913 96.5675ZM671.998 92.5618C673.378 92.5618 674.557 92.2892 675.536 91.744C676.527 91.1987 677.278 90.4866 677.79 89.6076C678.312 88.7174 678.574 87.7661 678.574 86.7536V83.4489C678.396 83.6269 678.051 83.7938 677.539 83.9496C677.038 84.0942 676.465 84.2222 675.82 84.3335C675.175 84.4336 674.546 84.5282 673.934 84.6172C673.322 84.6951 672.81 84.7618 672.399 84.8175C671.43 84.9399 670.546 85.1457 669.745 85.435C668.955 85.7243 668.321 86.1416 667.842 86.6868C667.375 87.2209 667.141 87.933 667.141 88.8232C667.141 90.0582 667.597 90.9929 668.51 91.6271C669.422 92.2502 670.585 92.5618 671.998 92.5618ZM696.142 61.8182V96H691.151V61.8182H696.142Z" fill="black"/>
<path d="M244.354 123.818V158H241.233V127.089H241.032L233.021 132.414V129.176L241.099 123.818H244.354ZM265.673 158.467C263.77 158.467 262.067 158.083 260.565 157.316C259.074 156.537 257.884 155.469 256.994 154.111C256.115 152.754 255.647 151.201 255.592 149.455H258.613C258.713 151.268 259.425 152.759 260.749 153.928C262.073 155.085 263.714 155.663 265.673 155.663C267.197 155.663 268.554 155.302 269.745 154.578C270.936 153.844 271.865 152.843 272.532 151.574C273.211 150.295 273.55 148.854 273.55 147.251C273.539 145.582 273.178 144.114 272.466 142.845C271.753 141.566 270.785 140.564 269.561 139.841C268.349 139.118 266.986 138.756 265.472 138.756C264.326 138.745 263.202 138.934 262.101 139.324C260.999 139.713 260.081 140.214 259.347 140.826L256.226 140.425L258.279 123.818H275.169V126.622H260.899L259.531 138.055H259.697C260.454 137.421 261.372 136.903 262.451 136.503C263.542 136.102 264.693 135.902 265.906 135.902C267.92 135.902 269.728 136.386 271.331 137.354C272.944 138.322 274.218 139.657 275.153 141.36C276.098 143.051 276.571 144.998 276.571 147.201C276.571 149.36 276.098 151.29 275.153 152.993C274.218 154.684 272.927 156.019 271.281 156.999C269.645 157.978 267.776 158.467 265.673 158.467ZM288.293 153.327L287.993 155.113C287.804 156.314 287.537 157.638 287.192 159.085C286.847 160.531 286.491 161.906 286.124 163.207C285.756 164.509 285.439 165.555 285.172 166.345H282.886C283.03 165.589 283.214 164.626 283.436 163.458C283.67 162.289 283.909 160.993 284.154 159.569C284.399 158.156 284.621 156.698 284.822 155.196L285.055 153.327H288.293ZM303.537 123.818V158H300.416V127.089H300.216L292.204 132.414V129.176L300.282 123.818H303.537ZM325.423 158.467C323.242 158.467 321.301 158.056 319.598 157.232C317.896 156.409 316.561 155.285 315.593 153.861C314.625 152.425 314.141 150.806 314.141 149.004C314.141 147.591 314.436 146.272 315.025 145.048C315.615 143.813 316.427 142.778 317.462 141.944C318.497 141.098 319.66 140.547 320.95 140.292V140.108C319.27 139.618 317.918 138.656 316.895 137.221C315.871 135.774 315.365 134.133 315.376 132.297C315.365 130.594 315.799 129.07 316.678 127.724C317.557 126.377 318.753 125.315 320.266 124.536C321.79 123.746 323.51 123.351 325.423 123.351C327.326 123.351 329.034 123.746 330.547 124.536C332.061 125.315 333.257 126.377 334.136 127.724C335.026 129.07 335.477 130.594 335.488 132.297C335.477 134.122 334.959 135.763 333.935 137.221C332.912 138.667 331.565 139.629 329.896 140.108V140.292C331.187 140.536 332.344 141.082 333.368 141.927C334.392 142.773 335.204 143.813 335.805 145.048C336.406 146.272 336.706 147.591 336.706 149.004C336.706 150.806 336.216 152.425 335.237 153.861C334.269 155.285 332.934 156.409 331.232 157.232C329.54 158.056 327.604 158.467 325.423 158.467ZM325.423 155.663C327.048 155.663 328.472 155.374 329.696 154.795C330.931 154.206 331.894 153.399 332.584 152.375C333.285 151.352 333.635 150.178 333.635 148.854C333.635 147.485 333.273 146.267 332.55 145.199C331.827 144.119 330.848 143.268 329.613 142.645C328.378 142.011 326.981 141.694 325.423 141.694C323.866 141.694 322.464 142.011 321.217 142.645C319.982 143.268 319.003 144.119 318.28 145.199C317.568 146.267 317.212 147.485 317.212 148.854C317.212 150.178 317.551 151.352 318.23 152.375C318.92 153.399 319.882 154.206 321.117 154.795C322.363 155.374 323.799 155.663 325.423 155.663ZM325.423 139.023C326.759 139.023 327.955 138.739 329.012 138.172C330.069 137.604 330.903 136.831 331.515 135.852C332.138 134.862 332.456 133.738 332.467 132.48C332.456 131.234 332.144 130.133 331.532 129.176C330.92 128.208 330.086 127.457 329.028 126.923C327.983 126.377 326.781 126.105 325.423 126.105C324.066 126.105 322.853 126.377 321.785 126.923C320.728 127.457 319.893 128.208 319.281 129.176C318.68 130.133 318.386 131.234 318.397 132.48C318.386 133.738 318.686 134.862 319.298 135.852C319.921 136.831 320.761 137.604 321.818 138.172C322.886 138.739 324.088 139.023 325.423 139.023ZM345.561 158L361.134 126.839V126.622H343.191V123.818H364.405V126.756L348.849 158H345.561ZM396.824 132.364V134.951H384.223V132.364H396.824ZM388.162 158V128.608C388.162 127.229 388.479 126.066 389.113 125.12C389.758 124.174 390.598 123.457 391.633 122.967C392.668 122.477 393.764 122.233 394.921 122.233C395.7 122.233 396.346 122.299 396.857 122.433C397.38 122.555 397.792 122.678 398.092 122.8L397.225 125.404C397.002 125.337 396.729 125.259 396.407 125.17C396.084 125.081 395.678 125.037 395.188 125.037C393.898 125.037 392.902 125.398 392.201 126.121C391.5 126.845 391.149 127.879 391.149 129.226L391.133 158H388.162ZM412.602 158.534C410.387 158.534 408.429 157.972 406.727 156.848C405.035 155.725 403.711 154.172 402.754 152.192C401.797 150.2 401.319 147.902 401.319 145.299C401.319 142.673 401.797 140.364 402.754 138.372C403.711 136.369 405.035 134.812 406.727 133.699C408.429 132.575 410.387 132.013 412.602 132.013C414.816 132.013 416.769 132.575 418.46 133.699C420.151 134.823 421.475 136.38 422.432 138.372C423.4 140.364 423.884 142.673 423.884 145.299C423.884 147.902 423.406 150.2 422.449 152.192C421.492 154.172 420.162 155.725 418.46 156.848C416.769 157.972 414.816 158.534 412.602 158.534ZM412.602 155.814C414.382 155.814 415.89 155.335 417.125 154.378C418.36 153.421 419.295 152.147 419.929 150.556C420.574 148.965 420.897 147.212 420.897 145.299C420.897 143.385 420.574 141.627 419.929 140.025C419.295 138.422 418.36 137.137 417.125 136.169C415.89 135.201 414.382 134.717 412.602 134.717C410.833 134.717 409.325 135.201 408.079 136.169C406.844 137.137 405.903 138.422 405.258 140.025C404.624 141.627 404.307 143.385 404.307 145.299C404.307 147.212 404.624 148.965 405.258 150.556C405.903 152.147 406.844 153.421 408.079 154.378C409.314 155.335 410.821 155.814 412.602 155.814ZM434.317 123.818V158H431.346V123.818H434.317ZM446.089 123.818V158H443.118V123.818H446.089ZM464.854 158.534C462.64 158.534 460.682 157.972 458.979 156.848C457.288 155.725 455.964 154.172 455.007 152.192C454.05 150.2 453.572 147.902 453.572 145.299C453.572 142.673 454.05 140.364 455.007 138.372C455.964 136.369 457.288 134.812 458.979 133.699C460.682 132.575 462.64 132.013 464.854 132.013C467.069 132.013 469.021 132.575 470.713 133.699C472.404 134.823 473.728 136.38 474.685 138.372C475.653 140.364 476.137 142.673 476.137 145.299C476.137 147.902 475.659 150.2 474.702 152.192C473.745 154.172 472.415 155.725 470.713 156.848C469.021 157.972 467.069 158.534 464.854 158.534ZM464.854 155.814C466.635 155.814 468.142 155.335 469.377 154.378C470.612 153.421 471.547 152.147 472.181 150.556C472.827 148.965 473.149 147.212 473.149 145.299C473.149 143.385 472.827 141.627 472.181 140.025C471.547 138.422 470.612 137.137 469.377 136.169C468.142 135.201 466.635 134.717 464.854 134.717C463.085 134.717 461.577 135.201 460.331 136.169C459.096 137.137 458.156 138.422 457.511 140.025C456.876 141.627 456.559 143.385 456.559 145.299C456.559 147.212 456.876 148.965 457.511 150.556C458.156 152.147 459.096 153.421 460.331 154.378C461.566 155.335 463.074 155.814 464.854 155.814ZM488.418 158L480.674 132.364H483.812L489.887 153.51H490.104L496.162 132.364H499.317L505.325 153.46H505.559L511.634 132.364H514.772L507.028 158H503.957L497.881 136.987H497.564L491.489 158H488.418ZM530.98 158.534C528.587 158.534 526.518 157.978 524.771 156.865C523.024 155.741 521.672 154.189 520.715 152.208C519.769 150.217 519.296 147.925 519.296 145.332C519.296 142.751 519.769 140.458 520.715 138.456C521.672 136.442 522.99 134.867 524.671 133.732C526.362 132.586 528.315 132.013 530.529 132.013C531.92 132.013 533.261 132.269 534.551 132.781C535.842 133.282 536.999 134.055 538.023 135.101C539.058 136.136 539.876 137.443 540.476 139.023C541.077 140.592 541.378 142.45 541.378 144.598V146.066H521.349V143.446H538.34C538.34 141.799 538.006 140.319 537.339 139.006C536.682 137.682 535.764 136.636 534.585 135.869C533.416 135.101 532.064 134.717 530.529 134.717C528.904 134.717 527.475 135.151 526.24 136.019C525.004 136.887 524.036 138.033 523.335 139.457C522.646 140.881 522.295 142.439 522.284 144.13V145.699C522.284 147.735 522.634 149.516 523.335 151.04C524.048 152.553 525.055 153.727 526.356 154.562C527.658 155.396 529.199 155.814 530.98 155.814C532.192 155.814 533.255 155.624 534.167 155.246C535.091 154.868 535.864 154.362 536.487 153.727C537.122 153.082 537.6 152.375 537.923 151.608L540.743 152.526C540.354 153.605 539.714 154.601 538.824 155.513C537.945 156.426 536.843 157.16 535.519 157.716C534.206 158.261 532.693 158.534 530.98 158.534ZM548.864 158V132.364H551.752V136.303H551.969C552.481 135.012 553.371 133.971 554.639 133.181C555.919 132.38 557.365 131.98 558.979 131.98C559.224 131.98 559.496 131.985 559.797 131.996C560.097 132.008 560.347 132.019 560.548 132.03V135.051C560.414 135.029 560.181 134.995 559.847 134.951C559.513 134.906 559.151 134.884 558.762 134.884C557.427 134.884 556.236 135.168 555.19 135.735C554.155 136.291 553.337 137.065 552.737 138.055C552.136 139.045 551.835 140.175 551.835 141.443V158H548.864ZM583.782 137.988L581.061 138.756C580.794 137.988 580.416 137.293 579.926 136.67C579.437 136.047 578.797 135.551 578.007 135.184C577.228 134.817 576.26 134.634 575.103 134.634C573.367 134.634 571.943 135.045 570.83 135.869C569.717 136.692 569.161 137.755 569.161 139.056C569.161 140.158 569.539 141.054 570.296 141.744C571.064 142.422 572.243 142.962 573.834 143.363L577.707 144.314C579.854 144.837 581.462 145.666 582.53 146.801C583.609 147.936 584.149 149.36 584.149 151.074C584.149 152.52 583.748 153.805 582.947 154.929C582.146 156.053 581.028 156.937 579.593 157.583C578.168 158.217 576.516 158.534 574.636 158.534C572.132 158.534 570.068 157.972 568.443 156.848C566.819 155.713 565.779 154.078 565.322 151.941L568.176 151.24C568.544 152.765 569.261 153.916 570.329 154.695C571.409 155.474 572.827 155.864 574.585 155.864C576.555 155.864 578.129 155.424 579.309 154.545C580.488 153.655 581.078 152.542 581.078 151.207C581.078 150.172 580.733 149.304 580.043 148.603C579.353 147.891 578.307 147.368 576.905 147.034L572.716 146.033C570.491 145.499 568.844 144.653 567.776 143.496C566.708 142.339 566.174 140.904 566.174 139.19C566.174 137.777 566.557 136.536 567.325 135.468C568.093 134.389 569.15 133.543 570.496 132.931C571.843 132.319 573.378 132.013 575.103 132.013C577.451 132.013 579.326 132.547 580.727 133.615C582.141 134.672 583.159 136.13 583.782 137.988Z" fill="black"/>
<circle cx="127.08" cy="107.917" r="66.5836" fill="#E1FFB7" stroke="#C9C9C9"/>
<path d="M111.688 65.8799C110.042 65.8799 108.516 66.7409 107.665 68.1498L77.9698 117.315C77.0709 118.804 77.0671 120.666 77.9599 122.158L92.699 146.788C93.5477 148.206 95.0789 149.074 96.7317 149.074H156.428C158.075 149.074 159.602 148.212 160.452 146.802L175.317 122.161C176.217 120.668 176.217 118.8 175.317 117.307L145.684 68.1531C144.834 66.7424 143.307 65.8799 141.659 65.8799H111.688Z" fill="black"/>
<path fill-rule="evenodd" clip-rule="evenodd" d="M139.287 104.755C139.325 105.015 139.174 105.163 138.985 105.126H138.608C137.506 105.126 135.693 105.208 134.27 105.272L134.27 105.272C133.352 105.314 132.597 105.348 132.3 105.348C132.187 105.348 132.074 105.274 132.036 105.089C131.349 103.488 130.568 101.757 129.778 100.008C128.833 97.9118 127.875 95.7887 127.051 93.8308H125.201C125.196 93.8958 125.191 93.9595 125.186 94.022L125.185 94.0229C125.153 94.4228 125.125 94.7749 125.125 95.1269C125.106 95.4046 125.106 95.6638 125.106 95.9231C125.106 96.1823 125.106 96.4416 125.087 96.7193L124.974 100.793L124.823 104.2C124.785 104.607 124.748 104.867 124.257 105.274C122.217 105.274 120.178 105.237 118.138 105.163C118.025 104.755 117.949 104.459 117.949 104.126L118.101 99.6449C118.138 97.1267 118.138 94.6825 118.138 92.1643C118.138 89.6831 118.101 87.2389 118.025 84.7947C117.987 83.2764 117.874 81.721 117.761 80.2027V78.314C118.176 77.8326 118.554 77.7215 119.045 77.7215C119.477 77.7086 119.905 77.6913 120.329 77.6742C121.125 77.6419 121.906 77.6104 122.67 77.6104H127.315C131.885 77.6104 137.214 78.2769 138.423 83.4616C138.989 85.8687 138.461 88.1277 137.29 90.3126C136.541 91.7811 134.79 92.4853 133.325 93.0746L133.287 93.0901C133.517 93.9949 133.99 94.8485 134.446 95.674C134.663 96.065 134.875 96.4496 135.057 96.8304C135.775 98.2746 136.53 99.7188 137.286 101.163L137.286 101.163C137.493 101.552 137.805 102.08 138.116 102.607L138.117 102.608C138.428 103.135 138.74 103.663 138.947 104.052C138.981 104.11 139.015 104.164 139.048 104.217C139.161 104.398 139.258 104.554 139.287 104.755ZM124.861 83.2764V88.2018C126.409 88.2018 127.622 88.2018 129.019 88.1647C129.283 88.1647 129.585 88.0907 129.888 87.9055C130.907 87.4981 131.7 86.3131 131.549 85.4243C131.323 84.0541 130.53 83.3134 129.17 83.2023C127.924 83.1283 126.9 83.0912 125.654 83.0912C125.39 83.0912 125.163 83.1653 124.861 83.2764Z" fill="#E1FFB7"/>
<path d="M135.018 127.54C135.256 127.787 135.493 128.047 135.732 128.31C136.098 128.71 136.47 129.117 136.859 129.497C138.783 131.5 140.198 132.805 143.374 133.038C144.704 133.135 145.917 133.069 147.121 132.536C149.134 131.558 148.988 129.415 147.769 128.395C146.921 127.596 145.971 127.022 144.64 126.925C143.739 126.859 142.795 126.79 141.902 126.608C141.33 126.469 140.771 126.293 140.213 126.116C139.654 125.939 139.095 125.763 138.523 125.624C136.872 125.193 135.681 124.369 134.598 123.243C133.152 121.779 132.858 119.896 132.693 118.022C132.537 116.033 133.565 114.363 134.88 112.908C137.509 109.997 141.928 109.157 145.927 109.333C147.343 109.436 149.292 109.768 150.5 110.361C151.346 110.743 152.119 111.119 152.893 111.496C153.15 111.621 153.408 111.747 153.669 111.872C154.542 112.324 155.232 112.918 155.782 113.656C156.059 113.987 156.123 114.301 155.886 114.594L153.429 118.681C153.181 119.128 152.784 119.254 152.129 119.362C151.011 117.535 147.364 115.644 145.004 115.471C143.158 115.336 141.448 115.715 140.68 117.365C140.272 118.228 140.84 119.898 141.882 120.401C142.506 120.718 143.141 120.881 143.819 121.047C144.499 121.174 145.188 121.265 145.875 121.355C146.911 121.492 147.943 121.627 148.935 121.886C151.09 122.509 153.05 123.429 154.608 125.133C156.278 127.078 156.981 129.262 156.675 131.683C156.385 133.873 155.426 135.781 153.305 137.061C150.42 138.75 146.286 139.224 142.853 138.973C139.42 138.721 135.408 137.536 133.034 135.19C132.894 135.044 132.785 134.91 132.676 134.776C132.567 134.642 132.459 134.508 132.318 134.362C131.803 133.743 131.719 133.116 132.07 132.444C132.554 131.572 132.967 130.679 133.378 129.79C133.6 129.311 133.82 128.833 134.051 128.361C134.067 128.329 134.083 128.297 134.098 128.266L134.098 128.265C134.275 127.897 134.417 127.603 135.018 127.54Z" fill="#E1FFB7"/>
<path d="M100.734 110.45C100.775 110.41 100.829 110.388 100.886 110.388H108.527C108.782 110.388 108.88 110.901 108.66 111.027C108.536 111.098 108.383 111.173 108.222 111.253C107.878 111.423 107.493 111.614 107.253 111.825C106.003 112.888 105.038 114.451 104.356 116.512C103.703 118.573 103.376 121.083 103.376 124.042C103.376 126.968 103.703 129.461 104.356 131.522C105.038 133.584 106.003 135.163 107.253 136.26C107.46 136.442 107.797 136.609 108.104 136.76C108.27 136.843 108.428 136.92 108.55 136.994C108.774 137.128 108.653 137.774 108.391 137.774H100.958C100.902 137.774 100.848 137.753 100.808 137.714C99.6201 136.574 98.6301 135.208 97.8384 133.617C96.5321 130.957 95.8789 127.766 95.8789 124.042C95.8789 120.319 96.5321 117.144 97.8384 114.518C98.6137 112.939 99.579 111.583 100.734 110.45Z" fill="#E1FFB7"/>
<path d="M113.461 111.035C113.24 110.908 113.34 110.388 113.595 110.388H120.882C120.939 110.388 120.994 110.411 121.034 110.451C122.179 111.584 123.138 112.939 123.913 114.518C125.248 117.144 125.915 120.319 125.915 124.042C125.915 127.766 125.248 130.957 123.913 133.617C123.122 135.208 122.138 136.574 120.961 137.714C120.921 137.752 120.866 137.774 120.81 137.774H113.741C113.478 137.774 113.355 137.115 113.578 136.98C113.917 136.774 114.239 136.534 114.545 136.26C115.794 135.163 116.745 133.584 117.398 131.522C118.051 129.461 118.377 126.968 118.377 124.042C118.377 121.083 118.051 118.573 117.398 116.512C116.745 114.451 115.794 112.888 114.545 111.825C114.204 111.519 113.843 111.256 113.461 111.035Z" fill="#E1FFB7"/>
<circle cx="1486.86" cy="117.86" r="7.85965" fill="black"/>
<circle cx="1521.58" cy="117.86" r="7.85965" fill="black"/>
<circle cx="1556.3" cy="117.86" r="7.85965" fill="black"/>
<rect width="1641" height="207" transform="translate(0 1856)" fill="white"/>
<path d="M323.75 1923.22C323.727 1923.28 323.712 1923.34 323.705 1923.4C323.656 1923.53 323.623 1923.66 323.606 1923.79C323.6 1923.85 323.585 1923.92 323.561 1923.97C323.601 1924.1 323.651 1924.22 323.713 1924.34C323.74 1924.4 323.773 1924.45 323.811 1924.5C323.923 1924.68 324.069 1924.83 324.241 1924.94L357.911 1952.57L360.654 1998.75C360.653 1998.94 360.676 1999.12 360.724 1999.3C360.745 1999.36 360.771 1999.42 360.802 1999.48C360.846 1999.59 360.9 1999.7 360.966 1999.8L361.101 1999.96L361.338 2000.19L361.551 2000.24L361.748 2000.29L361.977 2000.35L362.288 2000.43C362.483 2000.43 362.678 2000.4 362.865 2000.34L362.947 2000.36C363.093 2000.31 363.23 2000.23 363.353 2000.14L363.467 2000.02L363.496 1999.91L416.268 1924.84C416.39 1924.7 416.485 1924.53 416.547 1924.35L416.588 1924.19C416.639 1924.05 416.675 1923.91 416.694 1923.76C416.714 1923.72 416.726 1923.67 416.731 1923.62C416.711 1923.41 416.662 1923.21 416.583 1923.02C416.485 1922.85 416.361 1922.69 416.215 1922.55L416.051 1922.51C415.934 1922.42 415.806 1922.35 415.67 1922.29L415.523 1922.25C415.347 1922.18 415.158 1922.13 414.966 1922.11L325.289 1921.93C325.254 1921.92 325.214 1921.91 325.175 1921.91L324.99 1921.95C324.855 1921.97 324.724 1922.02 324.605 1922.09L324.442 1922.19C324.297 1922.29 324.167 1922.41 324.057 1922.55C323.951 1922.69 323.874 1922.86 323.832 1923.03L323.75 1923.22ZM361.416 1952.82L408.202 1928.98L364.462 1994.1L361.416 1952.82ZM406.716 1925.95L359.991 1949.82L330.354 1924.99L406.716 1925.95Z" fill="black"/>
<path d="M248 1919.15C225.672 1919.15 207.515 1937.62 207.515 1960.31C207.515 1983 225.668 2001.48 248 2001.48C256.203 2001.48 264.072 1999.01 270.808 1994.33L283 1999.3L283.001 1999.3C283.497 1999.5 284.06 1999.4 284.452 1999.04V1999.04C284.854 1998.68 285.008 1998.12 284.87 1997.61L284.803 1997.36L284.799 1997.36L281.174 1983.9C285.961 1976.96 288.486 1968.82 288.486 1960.31C288.486 1937.62 270.332 1919.15 248 1919.15ZM248.005 1921.98C268.78 1921.98 285.696 1939.16 285.696 1960.31C285.696 1968.13 283.407 1975.6 279.077 1982C279.072 1982.01 279.066 1982.01 279.062 1982.02C279.058 1982.02 279.054 1982.03 279.053 1982.03L278.516 1982.8L278.515 1982.8L278.449 1982.91C278.329 1983.12 278.27 1983.34 278.262 1983.57V1983.69C278.266 1983.77 278.279 1983.89 278.312 1984L278.31 1984L281.434 1995.6L271.15 1991.41L271.148 1991.41L271.019 1991.36C270.889 1991.33 270.757 1991.31 270.628 1991.31C270.373 1991.31 270.127 1991.38 269.911 1991.51L269.82 1991.57L269.817 1991.57L269.215 1992C262.949 1996.35 255.63 1998.64 248.005 1998.64C227.23 1998.64 210.315 1981.46 210.314 1960.31C210.314 1939.17 227.226 1921.98 248.005 1921.98Z" fill="black" stroke="black" stroke-width="0.746524"/>
<path d="M124.947 1999.75C121.991 1999.75 119.054 1998.61 116.814 1996.34L83 1962.16C78.4813 1957.59 75.9961 1951.52 75.9961 1945.06C75.9961 1938.61 78.4813 1932.53 83 1927.96C87.5186 1923.4 93.5247 1920.88 99.9069 1920.88C106.289 1920.88 112.295 1923.4 116.814 1927.96L124.947 1936.19L133.081 1927.96C137.6 1923.4 143.606 1920.88 149.988 1920.88C156.37 1920.88 162.376 1923.4 166.895 1927.96C171.413 1932.53 173.899 1938.59 173.899 1945.06C173.899 1951.54 171.413 1957.59 166.895 1962.16L133.081 1996.34C130.84 1998.62 127.903 1999.75 124.947 1999.75ZM99.9069 1924.69C94.5221 1924.69 89.4764 1926.8 85.6545 1930.65C81.8514 1934.5 79.7615 1939.62 79.7615 1945.06C79.7615 1950.51 81.8514 1955.61 85.6545 1959.48L119.468 1993.67C122.481 1996.72 127.395 1996.72 130.426 1993.67L164.24 1959.48C168.043 1955.63 170.133 1950.51 170.133 1945.06C170.133 1939.62 168.043 1934.51 164.24 1930.65C156.389 1922.71 143.605 1922.71 135.753 1930.65L126.283 1940.23C125.549 1940.97 124.362 1940.97 123.628 1940.23L114.158 1930.65C110.336 1926.8 105.29 1924.69 99.9056 1924.69H99.9069Z" fill="black"/>
</g>
<defs>
<clipPath id="clip0_2212_9522">
<rect width="1641" height="2063" rx="76" fill="white"/>
</clipPath>
</defs>
</svg>
